<?xml version="1.0" standalone="no"?>
<!DOCTYPE svg PUBLIC "-//W3C//DTD SVG 1.1//EN" "http://www.w3.org/Graphics/SVG/1.1/DTD/svg11.dtd" >
<!--
2013-9-30: Created.
-->
<svg>
<metadata>
Created by iconfont
</metadata>
<defs>

<font id="iconfont" horiz-adv-x="1024" >
  <font-face
    font-family="iconfont"
    font-weight="500"
    font-stretch="normal"
    units-per-em="1024"
    ascent="896"
    descent="-128"
  />
    <missing-glyph />
    
    <glyph glyph-name="x" unicode="x" horiz-adv-x="1001"
d="M281 543q-27 -1 -53 -1h-83q-18 0 -36.5 -6t-32.5 -18.5t-23 -32t-9 -45.5v-76h912v41q0 16 -0.5 30t-0.5 18q0 13 -5 29t-17 29.5t-31.5 22.5t-49.5 9h-133v-97h-438v97zM955 310v-52q0 -23 0.5 -52t0.5 -58t-10.5 -47.5t-26 -30t-33 -16t-31.5 -4.5q-14 -1 -29.5 -0.5
t-29.5 0.5h-32l-45 128h-439l-44 -128h-29h-34q-20 0 -45 1q-25 0 -41 9.5t-25.5 23t-13.5 29.5t-4 30v167h911zM163 247q-12 0 -21 -8.5t-9 -21.5t9 -21.5t21 -8.5q13 0 22 8.5t9 21.5t-9 21.5t-22 8.5zM316 123q-8 -26 -14 -48q-5 -19 -10.5 -37t-7.5 -25t-3 -15t1 -14.5
t9.5 -10.5t21.5 -4h37h67h81h80h64h36q23 0 34 12t2 38q-5 13 -9.5 30.5t-9.5 34.5q-5 19 -11 39h-368zM336 498v228q0 11 2.5 23t10 21.5t20.5 15.5t34 6h188q31 0 51.5 -14.5t20.5 -52.5v-227h-327z" />
    

    
    <glyph glyph-name="net-error" unicode="&#58985;" d="M512 164.57142899999997c-39.5008 0-71.5008-32.749714-71.5008-73.142857s32-73.142857 71.5008-73.142857 71.5008 32.749714 71.5008 73.142857S551.5008 164.57142899999997 512 164.57142899999997zM252.750629 246.89371400000005l50.536229-51.679086C359.535543 244.39222900000004 432.356571 274.285714 512 274.285714s152.4992-29.893486 208.749714-79.107657L771.285943 246.85714299999995c-69.321143 62.392686-159.892114 100.571429-259.285943 100.571429C412.642743 347.42857100000003 322.0352 309.249829 252.750629 246.89371400000005zM126.357943 376.14262900000006l50.536229-51.713829C265.749943 406.606629 383.071086 457.142857 512 457.142857s246.250057-50.536229 335.107657-132.714057l50.536229 51.679086C795.785143 471.5008 660.642743 530.285714 512 530.285714S228.214857 471.5008 126.357943 376.14262900000006zM512 713.142857C314.071771 713.142857 134.286629 633.8212570000001 0 505.3568l50.570971-51.679086C171.856457 568.892343 333.7856 640 512 640s340.143543-71.107657 461.463771-186.357029L1024 505.3568C889.713371 633.8212570000001 709.928229 713.142857 512 713.142857z"  horiz-adv-x="1024" />

    
    <glyph glyph-name="pay-success" unicode="&#59028;" d="M512.01844 896C229.22742 896 0 666.765204 0 383.98893599999997c0-282.761516 229.22742-511.988936 512.01844-511.988936 282.768892 0 511.996312 229.22742 511.996312 511.988936C1024.014752 666.765204 794.787331 896 512.01844 896zM810.239788 537.716908L436.629629 164.210011c-3.031484-2.751201-6.483393-4.049355-10.134451-4.049355-3.997724 0-7.75942 1.556309-10.577004 4.381269L243.22683 337.240645c-2.82496 2.82496-4.381269 6.57928-4.381269 10.577004 0 3.990348 1.556309 7.744668 4.388645 10.569628 5.635168 5.642544 15.489336 5.642544 21.13188 0l161.841433-161.841433 362.605355 362.612731c5.731054 5.723678 15.703236 5.723678 21.434291 0C816.147863 553.235747 816.147863 543.6249829999999 810.239788 537.716908z"  horiz-adv-x="1025" />

    
    <glyph glyph-name="close" unicode="&#58935;" d="M625.425306 214.41053399999998l-115.472941 115.472941-115.471918-115.472941-54.117548 54.118572 115.471918 115.471918-115.471918 115.472941 54.117548 54.117548 115.471918-115.471918 115.472941 115.471918 54.117548-54.117548-115.472941-115.472941 115.472941-115.471918L625.425306 214.41053399999998zM780.543176 654.590811c-148.824537 148.824537-392.356063 148.824537-541.1806 0s-148.824537-392.355039 0-541.179576 392.356063-148.824537 541.1806 0C929.367713 262.23474899999997 929.367713 505.766274 780.543176 654.590811z"  horiz-adv-x="1024" />

    
    <glyph glyph-name="pay" unicode="&#59083;" d="M445.340084 121.75178400000004c-17.059218-1.248725-34.693337-1.913947-52.855046-1.913947-191.95527 0-325.68354 73.631766-325.68354 139.692329l0 85.6244c55.672204-59.577516 180.49596-101.123787 325.68354-101.123787 25.222525 0 49.81997 1.281699 73.564383 3.667323 4.855834 11.47508 10.511655 22.518627 16.834132 33.130639-28.314947-3.690262-58.533806-5.756178-90.398515-5.756178-191.95527 0-325.68354 73.641801-325.68354 139.692329l0 85.622967c55.672204-59.581817 180.49596-101.123787 325.68354-101.123787 145.147437 0 270.005602 41.54197 325.682107 101.123787l0-85.622967c0-0.010036-0.005735-0.021505-0.005735-0.032974 0.084586 0 0.167739 0.005735 0.252326 0.005735 10.411299 0 20.664894-0.633681 30.773688-1.759111L749.187424 725.225744C749.187424 819.539607 589.462448 896 392.485038 896 195.47322 896 35.781219 819.539607 35.781219 725.225744l0-465.695578c0-94.286624 159.686266-170.729813 356.703819-170.729813 19.337317 0 38.300446 0.761278 56.803368 2.180609C447.406 101.05391599999996 446.084158 111.31898000000001 445.340084 121.75178400000004L445.340084 121.75178400000004zM392.485038 864.958216c191.915128 0 325.682107-73.626031 325.682107-139.732472 0-66.060564-133.768412-139.676559-325.682107-139.676559-191.95527 0-325.68354 73.615995-325.68354 139.676559C66.801498 791.332185 200.529768 864.958216 392.485038 864.958216L392.485038 864.958216zM66.801498 655.619718c55.672204-59.564613 180.49596-101.123787 325.68354-101.123787 145.147437 0 270.005602 41.559174 325.682107 101.123787l0-85.621533c0-66.066299-133.768412-139.693763-325.682107-139.693763-191.95527 0-325.68354 73.627465-325.68354 139.693763L66.801498 655.619718 66.801498 655.619718zM66.801498 655.619718M911.467196 319.87899600000003c-102.316599 102.33237-268.795586 102.355308-371.084945 0.048745-102.295094-102.315166-102.272156-268.824259 0.044444-371.163797 102.316599-102.333803 268.795586-102.355308 371.084945-0.044444C1013.806734 51.03179799999998 1013.783795 217.53945799999997 911.467196 319.87899600000003L911.467196 319.87899600000003zM893.702613-34.125226c-92.483069-91.670179-242.962318-91.654409-335.466892 0.038709-92.504574 91.693118-92.521778 240.861994-0.044444 332.533607 92.483069 91.675914 242.968053 91.652975 335.472627-0.045877C986.162743 206.70809399999996 986.185682 57.544952999999964 893.702613-34.125226L893.702613-34.125226zM684.040106 55.07044099999996l-73.436787 77.115579-25.179515-25.179515 83.931238-88.130452 1.142634 1.146935 11.446407-13.737409L866.591947 195.132657 845.607345 220.31217200000003 684.040106 55.07044099999996 684.040106 55.07044099999996zM684.040106 55.07044099999996"  horiz-adv-x="1024" />

    
    <glyph glyph-name="empty-colse" unicode="&#59005;" d="M798.114878-34.01751200000001c-38.744419 0-75.172073 15.09786-102.551654 42.49279l-199.104687 199.087291L297.3385 8.475278000000003c-27.379581-27.39493-63.807235-42.49279-102.551654-42.49279s-75.1557 15.09786-102.551654 42.49279c-27.395954 27.379581-42.493813 63.807235-42.493813 102.550631 0 38.761815 15.09786 75.173097 42.510186 102.568027l199.070918 199.088314L104.300996 599.721133c-27.395954 27.379581-42.493813 63.807235-42.493813 102.551654s15.09786 75.172073 42.493813 102.551654c27.395954 27.395954 63.807235 42.493813 102.568027 42.493813 38.744419 0 75.172073-15.09786 102.551654-42.493813l187.038884-187.022511 187.039907 187.022511c27.379581 27.395954 63.790862 42.493813 102.551654 42.493813 38.743396 0 75.172073-15.09786 102.551654-42.493813 27.395954-27.379581 42.493813-63.807235 42.493813-102.551654s-15.09786-75.172073-42.493813-102.551654L701.580265 412.682249 900.666532 213.57858599999997c27.395954-27.379581 42.493813-63.790862 42.493813-102.552677 0-38.743396-15.09786-75.17105-42.493813-102.550631C873.286951-18.919652000000042 836.860321-34.01751200000001 798.114878-34.01751200000001zM496.45956 289.95099700000003c8.731872 0 17.463744-3.333932 24.130583-9.998725l223.233224-223.216851c14.515598-14.514575 33.778314-22.496363 54.292534-22.496363s39.776935 7.982812 54.292534 22.496363c14.514575 14.514575 22.496363 33.794687 22.496363 54.29151 0 20.514219-7.982812 39.795355-22.496363 54.275137L629.189537 388.552689c-13.33061 13.331633-13.33061 34.92851 0 48.25912l211.153094 211.169467c14.514575 14.514575 22.496363 33.778314 22.496363 54.29151s-7.982812 39.777959-22.496363 54.292534c-14.515598 14.514575-33.794687 22.496363-54.292534 22.496363-20.514219 0-39.794331-7.981788-54.275137-22.496363L520.589121 545.4132500000001c-13.331633-13.331633-34.92851-13.331633-48.260144 0L261.14416 756.565321c-14.498202 14.514575-33.778314 22.496363-54.276161 22.496363-20.513196 0-39.794331-7.981788-54.29151-22.496363-14.514575-14.514575-22.51376-33.778314-22.51376-54.292534s7.999185-39.777959 22.496363-54.29151l211.152071-211.169467c13.331633-13.33061 13.331633-34.927487 0-48.25912L140.495336 165.31946500000004c-14.497179-14.498202-22.496363-33.779338-22.496363-54.293557 0-20.4958 7.999185-39.776935 22.496363-54.29151 14.514575-14.514575 33.794687-22.496363 54.292534-22.496363 20.513196 0 39.794331 7.982812 54.29151 22.496363l223.25062 223.216851C478.995817 286.617066 487.727689 289.95099700000003 496.45956 289.95099700000003z"  horiz-adv-x="1024" />

    
    <glyph glyph-name="payment" unicode="&#58911;" d="M589.488839 213.06795599999998c-34.231639 0-61.989843 27.817556-61.989843 62.161758l0 62.163805c0 34.344203 27.758204 62.159712 61.989843 62.159712l372.121206 0 0-186.485275L589.488839 213.06795599999998 589.488839 213.06795599999998zM636.040061 350.334249c-25.716708 0-46.551222-20.832468-46.551222-46.605457 0-25.774013 20.833491-46.609551 46.551222-46.609551 25.65838 0 46.493917 20.835538 46.493917 46.609551C682.533978 329.50178200000005 661.697417 350.334249 636.040061 350.334249L636.040061 350.334249zM496.502028 337.39249600000005L496.502028 275.228691c0-51.486628 41.668005-93.26822 92.986811-93.26822l310.129316 0 0-124.328633c0-51.488675-41.670052-93.266174-93.045139-93.266174L155.433048-35.63433599999996c-51.373041 0-93.043093 41.777499-93.043093 93.266174L62.389956 648.259616c0 51.488675 41.670052 93.210915 93.043093 93.210915l298.605865 0-72.834842-30.425963L139.935076 711.044568c-25.716708 0-46.551222-20.890796-46.551222-46.603411 0-25.77913 20.833491-46.612621 46.551222-46.612621l759.683079 0 0-187.16168L589.488839 430.666856C538.170033 430.665833 496.502028 388.885264 496.502028 337.39249600000005L496.502028 337.39249600000005zM186.428993 554.986279l-61.992913 0 0-62.161758 30.996968 0 0 31.05325 30.996968 0L186.430016 554.986279 186.428993 554.986279zM186.428993 461.716013l-61.992913 0 0-62.163805 32.302707 0-1.305739 31.113625 30.996968-0.627287L186.430016 461.716013 186.428993 461.716013zM186.428993 368.50100399999997l-61.992913 0 0-62.161758 31.622208 0-0.62524 31.05325 30.996968 0L186.430016 368.50100399999997 186.428993 368.50100399999997zM186.428993 275.228691l-61.992913 0 0-62.161758 31.622208 0-0.62524 31.110555 30.996968-0.680499L186.430016 275.228691 186.428993 275.228691zM186.428993 181.96149400000002l-61.992913 0 0-62.165852 30.996968 0 0 31.110555 30.996968 0L186.430016 181.96149400000002 186.428993 181.96149400000002zM186.428993 88.74546299999997l-61.992913 0 0-62.163805 31.622208 0-0.62524 30.430056 30.996968 0L186.430016 88.74546299999997 186.428993 88.74546299999997zM310.471101 650.187525L674.813133 803.634336l69.769017-153.446811L310.471101 650.187525 310.471101 650.187525zM733.568305 741.4705309999999l73.004711 0c27.136034 0 51.375088-11.862165 68.348668-30.425963L748.385778 711.044568 733.568305 741.4705309999999 733.568305 741.4705309999999z"  horiz-adv-x="1024" />

    
    <glyph glyph-name="success" unicode="&#59182;" d="M887.904744 597.79148c-12.863647 12.063755-33.151673 11.487488-45.215428-1.408843L415.935493 142.01618099999996 182.815858 371.712619c-12.607338 12.416396-32.8644 12.287381-45.280796-0.319957-12.416396-12.576374-12.256417-32.8644 0.352641-45.248112l256.479935-252.671415c0.096331-0.096331 0.223626-0.127295 0.319957-0.223626s0.127295-0.223626 0.223626-0.319957c2.016073-1.919742 4.448434-3.008628 6.784464-4.288456 1.152533-0.672598 2.143368-1.663432 3.359548-2.143368 3.775837-1.47249 7.775299-2.239699 11.743798-2.239699 4.192125 0 8.384249 0.832576 12.287381 2.496009 1.312512 0.543583 2.33603 1.663432 3.552211 2.368714 2.399677 1.408843 4.895686 2.59234 6.944443 4.67206 0.096331 0.096331 0.127295 0.25631 0.223626 0.352641 0.063647 0.096331 0.192662 0.127295 0.287273 0.223626L889.277463 552.5794920000001C901.439269 565.408735 900.768391 585.664077 887.904744 597.79148z"  horiz-adv-x="1024" />

    
    <glyph glyph-name="location" unicode="&#58902;" d="M511.996928-127.99983599999996C448.154507-128.329565 127.998269 351.448086 127.998269 511.999293 127.998269 724.0741800000001 299.919994 896 511.996928 896c212.074886 0 384.002755-171.92582 384.002755-384.000707C896.001731 353.60053800000003 574.839924-128.329565 511.996928-127.99983599999996zM511.996928 832.00193c-176.730437 0-320.000589-143.2722-320.000589-320.000589 0-133.79199 266.797547-544.271337 320.000589-544.001001 52.369504-0.270336 319.998541 411.996918 319.998541 544.001001C831.997517 688.729731 688.727365 832.00193 511.996928 832.00193zM511.996928 351.998999c-88.365219 0-160.000294 71.635076-160.000294 160.000294 0 88.365219 71.635076 160.000294 160.000294 160.000294 88.365219 0 160.000294-71.635076 160.000294-160.000294C671.997222 423.634075 600.362147 351.998999 511.996928 351.998999zM511.996928 607.9974219999999c-53.018722 0-96.002225-42.975311-96.002225-95.998129 0-53.02077 42.981455-95.996081 96.002225-95.996081s96.000177 42.975311 96.000177 95.996081C607.997105 565.022111 565.017698 607.9974219999999 511.996928 607.9974219999999z"  horiz-adv-x="1024" />

    
    <glyph glyph-name="circle-success" unicode="&#58922;" d="M512.003597-128C229.672867-128-0.000014 101.66999799999996-0.000014 383.996403c0 282.33073 229.672881 512.003612 512.003612 512.003612 282.326405 0 511.999286-229.672881 511.999286-512.003612C1024.002884 101.66999799999996 794.330002-128 512.003597-128L512.003597-128zM512.003597 842.103683c-252.607153 0-458.107281-205.501569-458.107281-458.107281 0-252.602828 205.500127-458.105839 458.107281-458.105839 252.602828 0 458.108722 205.503011 458.108722 458.105839C970.112319 636.602114 764.606425 842.103683 512.003597 842.103683L512.003597 842.103683zM512.003597 842.103683M807.024807 581.8998320000001c-10.268302 10.294254-26.865985 10.294254-37.134287 0L429.894666 241.931372 254.17002 417.65746c-10.321648 10.288487-26.946724 10.288487-37.187632 0-10.351925-10.271186-10.351925-26.896262 0-37.108335L411.248225 186.12325099999998c10.346158-10.292812 26.942398-10.292812 37.212142 0L807.024807 544.739594C817.346455 555.009337 817.346455 571.661807 807.024807 581.8998320000001L807.024807 581.8998320000001 807.024807 581.8998320000001zM807.024807 581.8998320000001"  horiz-adv-x="1025" />

    
    <glyph glyph-name="cart-add" unicode="&#58944;" d="M803.2 0m-64 0a2 2 0 1 1 128 0 2 2 0 1 1-128 0ZM345.6 0m-64 0a2 2 0 1 1 128 0 2 2 0 1 1-128 0ZM774.4 777.6c-108.8 0-198.4-89.6-198.4-198.4 0-108.8 89.6-198.4 198.4-198.4 108.8 0 198.4 89.6 198.4 198.4C976 688 886.4 777.6 774.4 777.6zM774.4 432c-83.2 0-150.4 67.2-150.4 147.2 0 83.2 67.2 147.2 150.4 147.2 83.2 0 150.4-67.2 150.4-147.2C924.8 496 857.6 432 774.4 432zM368 246.39999999999998c0-12.8 12.8-22.4 25.6-22.4l492.8 41.6c12.8 0 22.4 12.8 22.4 25.6 0 12.8-12.8 22.4-25.6 22.4l-492.8-41.6C377.6 272 364.8 262.4 368 246.39999999999998zM844.8 604.8l-48 0 0 48c0 12.8-9.6 25.6-25.6 25.6s-25.6-9.6-25.6-25.6l0-48-48 0c-12.8 0-25.6-9.6-25.6-25.6 0-12.8 9.6-25.6 25.6-25.6l48 0 0-48c0-12.8 9.6-25.6 25.6-25.6s25.6 9.6 25.6 25.6l0 48 48 0c12.8 0 25.6 9.6 25.6 25.6C867.2 592 857.6 604.8 844.8 604.8zM329.6 704l188.8 0c12.8 0 25.6 9.6 25.6 25.6 0 12.8-9.6 25.6-25.6 25.6l-188.8 0c-12.8 0-25.6-9.6-25.6-25.6C304 713.6 316.8 704 329.6 704zM886.4 153.60000000000002l-524.8 0c-28.8 0-57.6 25.6-64 51.2l-92.8 547.2c-9.6 51.2-57.6 92.8-112 92.8l-22.4 0c-12.8 0-25.6-9.6-25.6-25.6 0-12.8 9.6-25.6 25.6-25.6l22.4 0c28.8 0 57.6-22.4 64-51.2l92.8-547.2c9.6-51.2 57.6-92.8 112-92.8l524.8 0c12.8 0 25.6 9.6 25.6 25.6C912 140.79999999999995 899.2 153.60000000000002 886.4 153.60000000000002z"  horiz-adv-x="1024" />

    
    <glyph glyph-name="double-down" unicode="&#58916;" d="M510.796592 109.13586199999997c-5.270027 0-10.559497 1.072425-15.464203 3.245927l-408.995021 180.439582c-19.37528 8.537444-28.141944 31.188326-19.6045 50.564629 8.537444 19.349697 31.213909 28.14092 50.564629 19.6045l393.499096-173.58957 393.525702 173.613106c19.37528 8.537444 42.021046-0.25378 50.558489-19.6045 8.537444-19.37528-0.228197-42.022069-19.6045-50.559513L526.287401 112.40737200000001C521.351995 110.232846 516.062526 109.13586199999997 510.796592 109.13586199999997L510.796592 109.13586199999997zM510.796592 409.873274c-5.270027 0-10.559497 1.072425-15.464203 3.242857L86.337367 593.559806c-19.37528 8.537444-28.141944 31.18321-19.6045 50.559513 8.537444 19.37528 31.213909 28.14706 50.564629 19.609617l393.499096-173.593663 393.525702 173.6172c19.37528 8.537444 42.021046-0.228197 50.558489-19.6045 8.537444-19.380396-0.228197-42.027186-19.6045-50.563606l-408.988882-180.439582C521.351995 410.945699 516.062526 409.873274 510.796592 409.873274L510.796592 409.873274zM510.796592 409.873274"  horiz-adv-x="1024" />

    
    <glyph glyph-name="info" unicode="&#58964;" d="M508.8 851.2c-256 0-464-208-464-464s208-464 464-464 464 208 464 464S764.8 851.2 508.8 851.2zM508.8-28.799999999999955c-230.4 0-416 185.6-416 416s185.6 416 416 416 416-185.6 416-416S739.2-28.799999999999955 508.8-28.799999999999955zM521.6 243.20000000000005c12.8 0 22.4 9.6 22.4 22.4l0 428.8c0 12.8-9.6 22.4-22.4 22.4-12.8 0-22.4-9.6-22.4-22.4l0-428.8C496 256 508.8 243.20000000000005 521.6 243.20000000000005zM521.6 147.20000000000005m-35.2 0a1.1 1.1 0 1 1 70.4 0 1.1 1.1 0 1 1-70.4 0Z"  horiz-adv-x="1024" />

    
    <glyph glyph-name="xiala" unicode="&#59065;" d="M512.726547 220.681354c-8.063653 0-15.790638 3.245927-21.435195 9.006118L231.175103 495.093191c-11.603269 11.837606-11.410887 30.840402 0.427742 42.442648 11.837606 11.601222 30.841426 11.410887 42.442648-0.427742l238.681054-243.534596L751.407602 537.108097c11.601222 11.839653 30.602995 12.033058 42.442648 0.427742 11.839653-11.603269 12.031011-30.605042 0.427742-42.442648L534.161742 229.687472C528.517185 223.927281 520.791224 220.681354 512.726547 220.681354z"  horiz-adv-x="1024" />

    
    <glyph glyph-name="user-active" unicode="&#58899;" d="M800.896 230.46400000000006c-8.896 8.896-23.232 8.896-32.128 0-8.832-8.896-8.832-23.232 0-32.128 63.232-63.232 100.224-145.664 105.664-234.112L149.504-35.775999999999954c5.44 88.448 42.432 170.88 105.664 234.112 66.112 66.112 153.28 103.616 246.4 106.24C505.024 304.448 508.544 304.384 512 304.384c150.208 0 272.384 122.176 272.384 272.384 0 150.208-122.176 272.384-272.384 272.384l0 0c-150.208 0-272.384-122.176-272.384-272.384 0-107.136 62.208-200 152.32-244.48C328.832 313.024 271.04 278.4 223.104 230.46400000000006c-77.184-77.184-119.68-179.776-119.68-288.896 0 0 0 0 0 0 0 0 0 0 0 0 0 0 0 0 0 0 0-10.176 6.72-18.816 15.936-21.696 2.112-0.64 777.856-1.024 778.56-1.024 12.544 0 22.72 10.176 22.72 22.72C920.576 50.68799999999999 878.08 153.27999999999997 800.896 230.46400000000006zM284.992 576.768c0 125.184 101.824 227.008 227.008 227.008 125.184 0 227.008-101.824 227.008-227.008 0-123.904-99.84-224.96-223.296-226.944 0 0-2.432 0.32-3.712 0.32-3.456 0-6.912-0.064-10.368-0.128C381.248 355.456 284.992 455.104 284.992 576.768zM800.896 230.46400000000006L800.896 230.46400000000006 800.896 230.46400000000006Z"  horiz-adv-x="1024" />

    
    <glyph glyph-name="personal" unicode="&#58970;" d="M594.109152 279.536524C699.862301 333.702771 771.224181 441.175483 771.224181 569.282955c0 179.694374-142.723762 324.137699-318.979009 324.137699S132.406381 748.9773299999999 132.406381 569.282955c0-128.107473 73.941226-235.580185 177.115029-289.746432C142.723762 222.790932 17.195634 70.60957199999996 0-113.38371099999995l56.745592 0C78.240134 80.06717000000003 233.00084 233.10831199999996 429.890848 245.14525600000002c7.738035 0 17.195634 2.579345 24.933669 2.579345s17.195634-2.579345 24.933669-2.579345c194.310663-12.036944 351.650714-164.218304 373.145256-358.528967l56.745592 0C887.29471 70.60957199999996 761.766583 222.790932 594.109152 279.536524zM452.245172 288.99412299999995c-152.18136 0-275.130143 125.528128-275.130143 277.709488 0 154.760705 122.948783 277.709488 275.130143 277.709488s275.130143-125.528128 275.130143-277.709488C724.79597 414.52225 601.847187 288.99412299999995 452.245172 288.99412299999995zM803.036104 773.051217l226.122586 0 0-49.007557-226.122586 0 0 49.007557ZM837.427372 615.7111669999999l191.731318 0 0-49.007557-191.731318 0 0 49.007557ZM803.036104 458.371117l226.122586 0 0-49.007557-226.122586 0 0 49.007557Z"  horiz-adv-x="1030" />

    
    <glyph glyph-name="home" unicode="&#59033;" d="M993.615 302.466c-6.161 0-12.323 2.352-17.027 7.054l-464.588 464.59-464.589-464.589c-9.407-9.407-24.645-9.407-34.051 0-9.407 9.407-9.407 24.645 0 34.052l481.616 481.615c9.406 9.407 24.644 9.407 34.051 0l481.615-481.615c9.407-9.407 9.407-24.645 0-34.052-4.703-4.704-10.865-7.054-17.026-7.054zM800.97-106.90700000000004l-168.565 0c-13.31 0-24.081 10.77-24.081 24.081 0 13.31 10.771 24.081 24.081 24.081l168.565 0c26.55 0 48.161 21.611 48.161 48.161l0 264.889c0 13.31 10.771 24.08 24.081 24.08 13.311 0 24.081-10.77 24.081-24.08l0-264.889c0-53.123-43.2-96.323-96.323-96.323zM391.597-106.90700000000004l-168.565 0c-53.123 0-96.322 43.2-96.322 96.323l0 457.535c0 13.31 10.77 24.081 24.08 24.081s24.081-10.77 24.081-24.081l0-457.534c0-26.55 21.612-48.161 48.162-48.161l144.484 0 0 216.726c0 13.31 10.77 24.081 24.081 24.081l240.807 0c13.31 0 24.081-10.771 24.081-24.081 0-13.31-10.77-24.081-24.081-24.081l-216.727 0 0-216.726c0-13.311-10.77-24.082-24.08-24.082z"  horiz-adv-x="1024" />

    
    <glyph glyph-name="404" unicode="&#58968;" d="M904.13861 755.138832L105.854375 755.138832c-27.586288 0-42.014906-28.187993-42.014906-56.019875l0-644.242883c0-27.079752 14.921851-42.014906 42.014906-42.014906l798.284235 0c27.832905 0 56.019875 14.44192 56.019875 42.014906l0 644.242883C960.158485 726.342995 931.369811 755.138832 904.13861 755.138832zM932.149571 54.87607400000002c0-9.655917-16.385179-13.991666-28.010961-13.991666L105.854375 40.88440800000001c-11.775184 0-14.004969 2.229784-14.004969 13.991666l0 517.056156c0.943488-0.205685 1.819438 1.134847 2.817162 1.134847l837.481979 0L932.148547 54.87607400000002zM932.149571 601.078037L94.667591 601.078037c-0.998747 0-1.873674-2.072195-2.817162-2.270716l0 100.311637c0 11.618619 4.349051 28.002774 14.004969 28.002774l798.284235 0c11.776208 0 28.010961-16.23373 28.010961-28.002774L932.150594 601.078037zM169.90311 240.331903c1.901303-1.50426 4.226255-3.391237 6.838755-3.391237l125.184117 0 0-70.024843 28.009937 0 0 70.024843 39.361473 0c2.653433 0 2.051729 2.133593 3.296069 3.583618 1.286296 1.476631-0.642636 4.677533-0.642636 6.783497l0 17.642822-42.014906 0L329.935919 447.029522l-28.940123 0L162.668335 264.59449300000006l3.555989-17.492396C166.770769 244.873336 167.988504 241.87811899999997 169.90311 240.331903zM304.168046 407.003923c-0.670266-4.226255-1.285273-7.05058-1.517563-11.016915-0.178055-3.966335-0.724501-7.679913-0.724501-11.133571l0-119.903857-100.93483 0L304.168046 407.003923zM410.791435 197.29266800000005c9.245572-11.913331 20.132526-20.761859 32.659841-26.616194 12.500709-5.838985 26.041096-8.698103 40.606837-8.698103 14.402011 0 27.954679 2.859118 40.591487 8.698103 12.597923 5.854335 23.594371 14.702863 32.852222 26.616194 9.259898 11.897981 16.563234 26.956955 21.896706 45.146223 5.360078 18.21792 8.042163 39.745213 8.042163 64.636113 0 24.858154-2.682086 46.439682-8.042163 64.704674-5.334495 18.257829-12.637832 33.357735-21.896706 45.345768-9.257851 11.966543-20.2543 20.897959-32.852222 26.704199-12.637832 5.805216-26.190499 8.746198-40.591487 8.746198-14.564717 0-28.106128-2.940982-40.606837-8.746198-12.527314-5.806239-23.414269-14.736633-32.659841-26.704199-9.258874-11.988032-16.534582-27.087938-21.828145-45.345768-5.333472-18.266016-7.93267-39.84652-7.93267-64.704674 0-24.8909 2.599198-46.418192 7.93267-64.636113C394.256854 224.24962300000004 401.532561 209.190649 410.791435 197.29266800000005zM423.017898 361.748207c3.638877 14.750959 8.493441 26.634614 14.59337 35.634592 6.058996 8.972349 13.144368 15.47546 21.240767 19.36607 8.069793 3.857864 16.452717 5.840008 25.206078 5.840008 8.740058 0 17.10968-1.983167 25.206078-5.840008 8.082072-3.89061 15.207353-10.393721 21.335934-19.36607 6.141884-8.999978 11.024078-20.883633 14.70184-35.634592 3.6399-14.749936 5.443989-32.994462 5.443989-54.673204 0-21.718651-1.805112-39.908942-5.443989-54.597479-3.677762-14.688537-8.559956-26.533306-14.70184-35.533284-6.127558-8.998955-13.252839-15.481599-21.335934-19.36607-8.096399-3.898797-16.46602-5.840008-25.206078-5.840008-8.753361 0-17.136286 1.941212-25.206078 5.840008-8.096399 3.88447-15.181771 10.367115-21.240767 19.36607-6.099928 8.999978-10.954493 20.843724-14.59337 35.533284-3.664459 14.688537-5.470595 32.878828-5.470595 54.597479C417.548326 328.753745 419.353438 346.99827100000005 423.017898 361.748207zM598.683756 240.331903c1.914606-1.50426 4.197602-3.391237 6.837732-3.391237l130.559545 0 0-70.024843 28.008914 0 0 70.024843 34.001395 0c2.638083 0 4.745071 2.133593 5.990434 3.583618 1.245364 1.476631 2.025123 4.677533 2.025123 6.783497l0 17.642822-42.015929 0L764.09097 447.029522l-34.301224 0-138.381697-182.434006 3.569292-17.492396C595.538113 244.873336 596.740498 241.87811899999997 598.683756 240.331903zM734.287177 407.003923c-0.655939-4.226255 0.014326-7.05058-0.163729-11.016915-0.220011-3.966335 1.956561-7.679913 1.956561-11.133571l0-119.903857-106.352213 0L734.287177 407.003923zM151.097812 679.424406c-10.394744 0-18.805298-8.41874-18.805298-18.832927 0-10.393721 8.411577-18.819624 18.805298-18.819624 10.408047 0 18.819624 8.42488 18.819624 18.819624C169.916413 671.006689 161.505859 679.424406 151.097812 679.424406zM226.346633 679.424406c-10.394744 0-18.805298-8.41874-18.805298-18.832927 0-10.393721 8.411577-18.819624 18.805298-18.819624 10.408047 0 18.819624 8.42488 18.819624 18.819624C245.166257 671.006689 236.75468 679.424406 226.346633 679.424406zM301.596478 679.424406c-10.394744 0-18.805298-8.41874-18.805298-18.832927 0-10.393721 8.411577-18.819624 18.805298-18.819624s18.819624 8.42488 18.819624 18.819624C320.416102 671.006689 311.991222 679.424406 301.596478 679.424406z"  horiz-adv-x="1024" />

    
    <glyph glyph-name="checked" unicode="&#58901;" d="M512 832c-249.856 0-448-198.656-448-448s198.656-448 448-448 448 198.656 448 448S761.856 832 512 832zM780.8 492.544L460.8 223.74400000000003l0 0c-6.656-6.656-12.8-6.656-25.6-6.656-6.656 0-19.456 6.656-25.6 12.8l0 0-121.344 153.6c-12.8 12.8-6.656 32.256 6.656 45.056 12.8 12.8 32.256 6.656 45.056-6.656l109.056-128L742.4 544.256c12.8 12.8 32.256 6.656 45.056-6.656C800.256 524.8 793.6 505.344 780.8 492.544z"  horiz-adv-x="1024" />

    
    <glyph glyph-name="default-ring" unicode="&#59090;" d="M511.25236773-92.42084178000005c-79.88492273 0-158.70676658 20.93868283-229.75173973 61.95664213-106.66432922 61.54929342-182.97253857 160.96953534-214.86739152 279.92633679-31.88367664 118.9791565-15.54007837 243.23148276 46.0315689 349.89581198 37.8709473 65.62401606 91.73527332 121.3325846 155.75225078 161.10614512 16.35477458 10.14147513 37.75793289 5.11544646 47.88823169-11.20579675 10.13029881-16.29888937 5.11544646-37.73557904-11.19337767-47.87705415-54.3288015-33.7291619-100.04368225-81.03990371-132.20927413-136.7944227-52.29081881-90.56911482-66.17790934-196.10206086-39.09423377-297.10698511 27.0737408-101.02727931 91.87064157-185.44022262 182.46335298-237.73104143 90.56911482-52.26846496 196.09088334-66.16673302 297.10698511-39.07063716 101.02727931 27.0737408 185.45140016 91.85946404 237.73104144 182.45217544 52.29081881 90.56911482 66.16673302 196.10206086 39.0818147 297.10698511-27.0737408 101.02727931-91.87064157 185.44022262-182.45217546 237.73104144-16.62675385 9.59751661-22.33086893 30.85412913-12.7333511 47.4920605 9.59751661 16.61557753 30.85412913 22.34204645 47.50323803 12.72217479 106.66432922-61.54929342 182.96136105-160.96953534 214.85621521-279.92633678 31.88367664-118.9791565 15.54007837-243.23148276-46.02039136-349.89581198-61.57164848-106.66432922-160.99313072-182.97253857-279.95986816-214.86739153C591.65765237-87.14643046000003 551.30784229-92.42084178000005 511.25236773-92.42084178000005zM510.36936602 727.88991212c-8.89583479 0-17.79291235 3.39539468-24.5837017 10.18618402l-81.34541433 81.3342368c-13.58157991 13.58157991-13.58157991 35.58458315 0 49.16740339 13.55922485 13.58157991 35.58458315 13.58157991 49.16740339 0l81.34541433-81.33423681c13.58157991-13.58157991 13.58157991-35.58458315 0-49.16740338C528.17345589 731.28530678 519.26644357 727.88991212 510.36936602 727.88991212zM510.36936602 727.88991212c-8.89583479 0-17.80408988 3.39539468-24.5837017 10.18618402-13.58157991 13.58157991-13.58157991 35.58458315 0 49.16740338l81.34541434 81.33423681c13.58157991 13.58157991 35.60817854 13.58157991 49.16740338 0 13.58157991-13.58157991 13.58157991-35.58458315 0-49.16740339l-81.34541433-81.3342368C528.16227837 731.28530678 519.26644357 727.88991212 510.36936602 727.88991212z"  horiz-adv-x="1024" />

    
    <glyph glyph-name="service" unicode="&#58912;" d="M957.435978 649.828344L769.095449 815.872055l0 1.673106L712.603831 817.54516l0-207.742415L513.835811 488.195084 311.932382 608.681202 311.932382 817.54516l-54.406121 0 0-0.534166-0.059352 0.056282L67.906599 649.828344l-0.703011 0 0-0.692778 0-85.663008 0-205.839065 0-83.261309 0-2.39863 61.609173-60.585867 138.397047-126.506229 0.00614 0.00614L267.215948-39.929152000000045l46.815235 0 7.139607 0 383.532093 0 19.600407 0 32.272008 0L756.575298 86.40209100000004 958.14206 272.97741699999995l0 85.656869L958.14206 563.4725579999999l0 85.659939 0 0.695848L957.435978 649.828344zM645.614114 289.28482499999996L378.454448 289.28482499999996l0 43.321668 267.160689 0L645.615137 289.28482499999996z"  horiz-adv-x="1024" />

    
    <glyph glyph-name="icontjzp" unicode="&#58924;" d="M937.501 833.611h-851.001c-13.298 0-24.111-10.816-24.111-24.11v-851.003c0-13.293 10.812-24.11 24.111-24.11h851.002c13.297 0 24.11 10.815 24.11 24.11l0 851.003c-0.001 13.294-10.814 24.11-24.111 24.11zM945.554-41.501c0-4.514-3.536-8.050-8.050-8.050h-851.003c-4.516 0-8.052 3.537-8.052 8.050l-0 851.002c0 4.517 3.537 8.052 8.052 8.052h851.002c4.515 0 8.050-3.536 8.050-8.052v-851.003h0.001zM721.75 395.039h-198.711v198.713c0 6.097-4.943 11.039-11.037 11.039-6.097 0-11.039-4.943-11.039-11.039v-198.713h-198.713c-6.097 0-11.039-4.943-11.039-11.039s4.943-11.039 11.039-11.039h198.713v-198.713c0-6.096 4.943-11.038 11.039-11.038 6.095 0 11.037 4.943 11.037 11.038v198.713h198.714c6.098 0 11.038 4.943 11.038 11.039s-4.944 11.039-11.041 11.039z"  horiz-adv-x="1024" />

    
    <glyph glyph-name="wechat" unicode="&#59117;" d="M307.6559375 587.4712499899999c-9.9553125 0-19.8553125-4.05-26.829375-11.08031249-6.975-7.03125001-11.0803125-16.8178125-11.08031251-26.829375 0-9.8990625 4.05-19.7990625 11.08031251-26.829375 7.03125001-6.91875001 16.8740625-11.0240625 26.829375-11.0240625 9.8990625 0 19.7990625 4.10625001 26.773125 11.0803125 7.03125001 7.03125001 11.0803125 16.9303125 11.0803125 26.773125 0 10.0115625-4.05 19.7990625-11.0803125 26.829375-6.975 7.03125001-16.8740625 11.0803125-26.773125 11.08031251zM594.569375 383.29593750000004c-7.7615625 0-15.4678125-3.20625001-20.9803125-8.6615625s-8.7178125-13.1615625-8.71781251-20.9803125 3.20625001-15.4678125 8.66156251-20.98031249 13.2740625-8.6615625 21.0365625-8.66156251 15.4678125 3.20625001 20.9803125 8.66156251 8.6615625 13.1615625 8.66156249 20.98031249-3.20625001 15.4678125-8.66156249 20.9803125-13.2740625 8.6615625-20.9803125 8.6615625zM500.9759375 511.7071875c9.8990625 0 19.7990625 4.10625001 26.829375 11.0803125 6.975 7.03125001 11.0240625 16.9303125 11.0240625 26.829375 0 10.0115625-4.05 19.7990625-11.0240625 26.82937501-7.0865625 6.975-16.9865625 11.0240625-26.829375 11.02406249-9.9553125 0-19.7990625-4.05-26.829375-11.0803125s-11.0803125-16.8178125-11.08031249-26.829375c0-9.8990625 4.05-19.7990625 11.08031249-26.82937499 7.03125001-6.91875001 16.8740625-11.0240625 26.829375-11.02406251zM816.06875001 834h-608.13843751c-80.5453125 0-145.7915625-65.47124999-145.79156251-146.2978125v-607.408125c0-80.825625 65.24625001-146.2978125 145.79156251-146.29781251h608.1946875c80.5453125 0 145.7915625 65.47124999 145.7915625 146.29781251v607.408125c-0.05625001 80.825625-65.3034375 146.2978125-145.84781251 146.2978125zM399.78874999 231.03562499999998c-34.029375 0-61.4765625 6.975-95.56218749 13.6678125l-95.3371875-47.80968751 27.27937501 82.06312501c-68.2828125 47.7534375-109.1184375 109.2309375-109.11843751 184.095 0 129.87375001 122.8434375 232.0171875 272.795625 232.0171875 134.14875001 0 251.6465625-81.613125 275.214375-191.57625-8.6615625 1.0134375-17.4365625 1.63125001-26.266875 1.63125-129.5934375 0-231.9046875-96.7434375-231.90468749-215.874375 0-19.9115625 3.09375001-38.9221875 8.38031249-57.2015625-8.4365625-0.5634375-16.9303125-1.0134375-25.479375-1.0134375zM802.1196875 135.47343750000005l20.5303125-68.1140625-74.8078125 41.0034375c-27.279375-6.8634375-54.7265625-13.7240625-81.894375-13.72406249-129.76124999 0-231.9609375 88.700625-231.9609375 197.98781249 0 109.0621875 102.1996875 197.9878125 231.9609375 197.9878125 122.6184375 0 231.7359375-88.869375 231.73593751-197.9878125 0-61.59-40.7784375-116.03624999-95.56218751-157.153125zM743.1734375 383.29593750000004c-7.7615625 0-15.4678125-3.20625001-20.9803125-8.6615625s-8.6615625-13.1615625-8.6615625-20.9803125 3.20625001-15.4678125 8.6615625-20.98031249 13.2178125-8.6615625 20.9803125-8.66156251 15.4678125 3.20625001 20.98031251 8.66156251 8.6615625 13.1615625 8.66156249 20.98031249-3.20625001 15.4678125-8.66156249 20.9803125-13.2178125 8.6615625-20.98031251 8.6615625z"  horiz-adv-x="1024" />

    
    <glyph glyph-name="collect" unicode="&#58969;" d="M512-26.65343052000003L157.73665659 351.53298014999996c-67.57489778 72.77894163-100.04191763 147.11132918-96.3913197 221.13302755 4.81568237 95.76994133 69.43903289 154.02416355 72.23523556 156.43200475 51.18604325 43.65183052 105.86733985 65.63309037 163.03414992 65.63309037 98.41079941 0 177.17050785-64.85636741 215.30760533-103.61484327 38.29244208 38.83614815 116.74146133 103.61484325 215.54062222 103.61484327 57.16681008 0 111.84810667-21.98125985 162.72346075-65.2447289 3.18456415-2.71853037 67.73024237-60.97275259 72.54592474-156.74269392 3.72827022-73.94402608-28.73874963-148.35408592-96.31364741-221.05535525L512-26.65343052000003 512-26.65343052000003M174.51387259 681.795584c0 0-47.76846222-43.80717511-50.72000948-113.1685357C121.30834963 512.31463348 148.10529185 453.59437748 203.48563911 394.25274311L512 64.84453452000002l308.59203318 329.40820859c55.14733037 59.57465125 82.17728948 118.21723497 79.53643141 174.37430519-3.02921955 69.36136059-50.72000948 113.246208-51.34138784 113.63456948-38.52545897 33.01072592-79.53643141 49.94328652-121.40179912 49.94328652-105.40130608 0-189.98643675-106.17802903-190.840832-107.18776889L511.30094933 592.70546015 486.7565037 625.63851378C486.44581452 626.10454755 402.40438992 732.127232 296.53705008 732.127232 254.67168237 732.127232 213.66070992 715.19467141 174.51387259 681.795584L174.51387259 681.795584 174.51387259 681.795584M174.51387259 681.795584L174.51387259 681.795584z"  horiz-adv-x="1024" />

    
    <glyph glyph-name="share" unicode="&#58905;" d="M900.3008 384l-8.6016 0c-9.3184 0-16.9984-7.68-16.9984-16.9984l0-25.7024 0-68.3008 0-230.2976c0-35.328-28.672-64-64-64l-640 0c-35.328 0-64 28.672-64 64l0 640c0 35.328 28.672 64 64 64l272.9984 0L512 746.7008l25.7024 0c9.3184 0 16.9984 7.68 16.9984 16.9984l0 8.6016c0 9.3184-7.68 16.9984-16.9984 16.9984L512 789.2992l-68.3008 0L170.7008 789.2992c-58.7776 0-106.7008-47.8208-106.7008-106.7008l0-640c0-58.7776 47.8208-106.7008 106.7008-106.7008l640 0c58.7776 0 106.7008 47.8208 106.7008 106.7008L917.4016 272.99839999999995l0 68.3008 0 25.7024C917.2992 376.32000000000005 909.7216 384 900.3008 384zM952.9344 677.4784L790.528 826.1632c-9.0112 8.2944-23.1424 7.7824-31.5392-1.1264-8.3968-8.8064-7.8848-22.7328 1.1264-30.9248l127.488-116.736c-236.8512-6.2464-439.6032-174.8992-439.6032-399.1552 0-12.0832 9.9328-21.9136 22.3232-21.9136s22.3232 9.8304 22.3232 21.9136c0 197.9392 178.688 345.9072 387.9936 355.0208L772.096 518.656c-8.3968-8.8064-7.8848-22.7328 1.1264-30.9248 4.3008-3.8912 9.728-5.8368 15.1552-5.8368 5.9392 0 11.8784 2.3552 16.2816 6.9632l149.2992 157.696C962.4576 655.36 961.9456 669.184 952.9344 677.4784z"  horiz-adv-x="1024" />

    
    <glyph glyph-name="times" unicode="&#58923;" d="M540.672 384l303.104 303.104c8.192 8.192 8.192 20.48 0 28.672s-20.48 8.192-28.672 0l-303.104-303.104L208.896 715.7760000000001c-8.192 8.192-20.48 8.192-28.672 0s-8.192-20.48 0-28.672l303.104-303.104-303.104-303.104c-8.192-8.192-8.192-20.48 0-28.672 4.096-4.096 8.192-4.096 16.384-4.096s12.288 0 16.384 4.096l303.104 303.104 303.104-303.104c4.096-4.096 8.192-4.096 16.384-4.096s12.288 0 16.384 4.096c8.192 8.192 8.192 20.48 0 28.672L540.672 384z"  horiz-adv-x="1024" />

    
    <glyph glyph-name="build" unicode="&#58933;" d="M967.111111 82.48888899999997C938.666667 99.55555600000002 884.622222 113.77777800000001 839.111111 128L839.111111 716.8C839.111111 753.777778 813.511111 782.222222 776.533333 782.222222L409.6 782.222222c-36.977778 0-54.044444-28.444444-54.044444-65.422222l0-557.511111c-5.688889 0-22.755556-2.844444-31.288889-2.844444 0 0 0 2.844444 0 2.844444 0 59.733333-45.511111 108.088889-99.555556 108.088889-54.044444 0-99.555556-48.355556-99.555556-108.088889 0-17.066667 2.844444-31.288889 8.533333-45.511111-25.6-8.533333-48.355556-19.911111-65.422222-28.444444C-2.844444 14.222221999999988 88.177778 14.222221999999988 88.177778 14.222221999999988l853.333333 0C941.511111 14.222221999999988 1078.044444 8.53333299999997 967.111111 82.48888899999997L967.111111 82.48888899999997zM642.844444 637.1555559999999c0 17.066667 14.222222 34.133333 34.133333 34.133333l76.8 0c17.066667 0 34.133333-14.222222 34.133333-34.133333l0-79.644444c0-17.066667-14.222222-34.133333-34.133333-34.133333L682.666667 523.377778c-17.066667 0-39.822222 14.222222-39.822222 34.133333L642.844444 637.1555559999999 642.844444 637.1555559999999zM642.844444 381.15555600000005c0 17.066667 14.222222 34.133333 34.133333 34.133333l76.8 0c17.066667 0 34.133333-14.222222 34.133333-34.133333l0-73.955556c0-17.066667-14.222222-34.133333-34.133333-34.133333L682.666667 273.06666700000005c-17.066667 0-39.822222 14.222222-39.822222 34.133333L642.844444 381.15555600000005 642.844444 381.15555600000005zM415.288889 637.1555559999999c0 17.066667 14.222222 34.133333 34.133333 34.133333l79.644444 0c17.066667 0 34.133333-14.222222 34.133333-34.133333l0-79.644444c0-17.066667-14.222222-34.133333-34.133333-34.133333L455.111111 523.377778c-17.066667 0-39.822222 14.222222-39.822222 34.133333L415.288889 637.1555559999999 415.288889 637.1555559999999zM415.288889 381.15555600000005c0 17.066667 14.222222 34.133333 34.133333 34.133333l79.644444 0c17.066667 0 34.133333-14.222222 34.133333-34.133333l0-73.955556c0-17.066667-14.222222-34.133333-34.133333-34.133333L455.111111 273.06666700000005c-17.066667 0-39.822222 14.222222-39.822222 34.133333L415.288889 381.15555600000005 415.288889 381.15555600000005zM415.288889 381.15555600000005"  horiz-adv-x="1024" />

    
    <glyph glyph-name="server-error" unicode="&#59909;" d="M672 448C513.216 448 384 318.784 384 160S513.216-128 672-128s288 129.216 288 288S830.784 448 672 448zM672-64C548.48-64 448 36.48000000000002 448 160S548.48 384 672 384 896 283.52 896 160 795.52-64 672-64zM640 320l64 0 0-192-64 0L640 320zM640 64l64 0 0-64-64 0L640 64zM406.016-64L64-64l0 64 300.224 0c-10.432 0-18.88 64-25.216 64L64 64 64 512l613.312 0L704 512l0-6.976c0-1.984 64-6.144 64-12.032L768 896 0 896l0-1024 475.584 0C449.664-128 426.176-64 406.016-64zM64 832l640 0 0-128L64 704 64 832zM64 640l640 0 0-64L64 576 64 640z"  horiz-adv-x="1024" />

    
    <glyph glyph-name="finished" unicode="&#58930;" d="M825.331241 831.577758c-2.103918 0-4.113691-0.124843-6.122441-0.220011l-0.438998 0L204.463742 831.357747l-0.438998 0c-2.00875 0.094144-4.018523 0.220011-6.122441 0.220011-73.624834 0-133.435035-59.841923-133.435035-133.436058l0.220011-14.127765-0.314155 0 0-601.307002 0.314155 0-0.094144-13.438057 0-1.224898c0-72.714092 59.151191-131.99115 131.960451-131.99115 2.228761 0 4.457522 0.12689 6.687306 0.220011l0.440022 0 612.326986 0 0.659009-0.094144c2.888793-0.345877 5.996574-0.440022 9.230222-0.440022 72.809259 0 131.959428 59.152215 131.959428 131.74044 0 0.344854 0 0.564865 0 0.784876 0 0.345877 0 0.659009 0 1.004887l-0.094144 13.438057 0.87902 0L958.641433 689.3515l0 0.564865c0.218988 2.668783 0.345877 5.337565 0.345877 8.006348C958.986287 771.640668 899.05022 831.577758 825.331241 831.577758L825.331241 831.577758zM717.579145 376.26380500000005L471.869001 130.522961c-5.242398-5.211698-12.119015-7.785314-18.900465-7.785314-6.782473 0-13.688767 2.573615-18.900465 7.785314L305.749566 258.84146499999997c-10.455119 10.455119-10.455119 27.346835 0 37.676088 10.455119 10.455119 27.346835 10.455119 37.706787 0l109.511159-109.511159 226.934522 226.934522c10.455119 10.455119 27.346835 10.455119 37.676088 0C728.033241 403.485797 728.033241 386.594081 717.579145 376.26380500000005L717.579145 376.26380500000005zM887.778502 679.555389L135.329175 679.555389l0 22.039969 0.533143 1.382487c0.408299 1.12973 0.62831 2.260483 0.62831 3.233648 0 32.244378 34.221406 58.522881 76.419484 58.522881 0.220011 0 0.659009 0.094144 1.067308 0.094144l0.62831 0.094144 593.144088 0 0.847298-0.094144c0.534166-0.094144 1.161453-0.094144 1.695618-0.094144 42.197054 0 76.54535-26.279526 76.54535-58.585303 0-0.910743 0.188288-1.789763 0.533143-2.762927l0.408299-1.224898L887.779525 679.555389 887.778502 679.555389z"  horiz-adv-x="1024" />

    
    <glyph glyph-name="check" unicode="&#58941;" d="M510.863107-45.44784200000004c-236.115626 0-428.214758 192.098109-428.214758 428.214758 0 236.117672 192.098109 428.215782 428.214758 428.215782 236.117672 0 428.215782-192.098109 428.215782-428.215782C939.078889 146.65026699999999 746.980779-45.44784200000004 510.863107-45.44784200000004L510.863107-45.44784200000004zM510.863107 765.90299c-211.267704 0-383.136074-171.867346-383.136074-383.136074 0-211.267704 171.868369-383.140167 383.136074-383.140167 211.268728 0 383.142214 171.872462 383.142214 383.140167C894.004297 594.035644 722.131835 765.90299 510.863107 765.90299L510.863107 765.90299zM510.863107 765.90299"  horiz-adv-x="1024" />

    
    <glyph glyph-name="shop" unicode="&#58984;" d="M828.755224 641.452583M173.500543 369.34625500000004c-28.009937 0-52.873208 4.924149-74.037227 14.653745l-0.312108 0-6.966669 3.567245c-56.69321 30.41266-91.789543 89.267093-91.837638 153.719011 0 19.146059 3.171226 38.231743 9.416464 56.752562l1.345648 4.684696 100.726076 240.140289c9.489118 27.710109 34.639938 44.285622 68.511373 44.285622l666.573471 0c38.219463-2.221598 61.905932-18.088984 71.898517-47.216371l95.729272-242.326071c5.957689-17.488303 9.104355-36.44198 9.104355-55.491849 0.144286-63.574944-34.304294-122.141828-89.867774-152.818501l0 0c-22.893406-12.659321-50.735521-19.194154-82.733283-19.386536-60.415998 0-115.427916 31.013341-147.281391 82.9492l-1.465374 2.618641c-1.51347 3.326768-3.171226 6.942109-5.957689 10.029424-2.570545 2.907213-6.581905 6.137791-15.566534 6.137791-6.845918 0-12.58769-2.654456-14.70184-5.273097-3.53143-4.03592-5.164626-7.435343-6.726192-10.714016l-1.537006-2.834558c-31.612998-51.587935-85.879949-82.624812-145.215336-83.009576-60.20008 0.312108-114.802676 31.40936-146.488329 83.201957l-1.51347 2.798742c-1.201361 2.49789-3.00238 6.173606-4.804423 8.227382-2.978844 3.543709-8.960069 6.426363-16.983813 6.426363-7.494695 0-12.707416-2.570545-13.860682-3.939729-3.939729-4.396123-5.693676-8.287757-6.870478-10.870582l-1.633197-3.207042C288.255123 400.407692 233.435587 369.52635699999996 173.500543 369.34625500000004zM111.161752 422.063921l1.657756-0.816598c16.527418-8.323573 36.921911-12.551874 60.60838-12.551874 46.195112 0.156566 88.546685 24.057929 113.217574 63.947428 1.321088 3.110851 5.02034 11.302417 12.251022 19.290345 9.224082 11.110035 25.704428 17.884322 43.913139 17.884322 18.809391 0 36.226063-7.423063 46.603411-19.878746 5.237281-5.897314 8.55177-12.755512 10.546194-16.851806 24.239054-39.613206 66.398246-63.683415 112.472608-63.923892 45.546336 0.312108 87.369883 24.310685 111.800295 64.22372 1.681292 3.591805 5.164626 10.858302 11.458983 18.005073 9.849322 12.17939 26.78504 19.602454 45.089941 19.602454 18.20871 0 33.751708-6.665817 44.945655-19.278065 6.702656-7.471159 10.329253-15.374152 12.059664-19.181875 24.166399-39.276539 66.6377-63.275115 113.14492-63.275115 25.223474 0.167822 46.723138 5.03262 63.827701 14.485923l0 0c43.00035 23.734564 69.641103 69.076238 69.544913 118.334105 0 14.773472-2.449795 29.475312-7.302313 43.720757-0.648776 2.306532-1.057075 3.820002-1.345648 5.152347l-93.734848 235.323587c-5.717212 16.59905-18.425651 20.515243-35.817764 21.536502l-665.756873-0.01228c-25.223474 0-29.979802-13.776771-31.781844-18.965957L48.079018 589.115588c-0.336668-1.381463-0.624217-2.342348-0.889253-3.207042-5.02034-14.905478-7.494695-29.763884-7.494695-44.61001 0.048095-49.918923 27.193339-95.488795 70.842465-118.91125L111.161752 422.063921zM803.511283 600.105896L220.512253 600.105896c-10.858302 0-19.674085 8.804527-19.674085 19.674085 0 10.870582 8.815783 19.674085 19.674085 19.674085l582.999031 0c10.858302 0 19.674085-8.804527 19.674085-19.674085C823.185368 608.909399 814.369585 600.105896 803.511283 600.105896zM847.160409-119.14840100000004l-670.296259 0c-44.753273 0-81.171718 36.406165-81.171718 81.171718L95.692433 286.03685099999996c0 10.870582 8.815783 19.674085 19.674085 19.674085s19.674085-8.804527 19.674085-19.674085l0-324.013535c0-23.061228 18.761296-41.822524 41.822524-41.822524l670.296259 0c23.061228 0 41.822524 18.761296 41.822524 41.822524L888.98191 286.03685099999996c0 10.870582 8.815783 19.674085 19.674085 19.674085 10.858302 0 19.674085-8.804527 19.674085-19.674085l0-324.013535C928.331104-82.74325999999996 891.913683-119.14840100000004 847.160409-119.14840100000004z"  horiz-adv-x="1024" />

    
    <glyph glyph-name="shouye-1" unicode="&#58906;" d="M770.749969-89.422765c-13.08305 0-22.095483 1.59429-23.025686 1.765881l6.448204 35.140602c0.439513-0.08128 44.254785-7.553008 72.565469 16.151214 17.157279 14.374497 25.860848 38.185888 25.860848 70.781526v114.867731l0.792328 267.0357 122.50804 0.075861c3.474564 0 6.755261 1.502173 8.993166 4.124201 1.827894 2.17228 2.739433 5.038148 2.481746 7.961214-0.263708 2.941127-1.683397 5.625169-3.996562 7.540364l-460.182574 380.453036-0.225777 0.201093c-4.229564 3.744895-10.747608 3.85086-15.158396 0.243839L42.638219 436.694045l-0.370275-0.276954c-2.903799-2.130135-4.56251-5.371697-4.562511-8.898039 0-4.135038 7.19056-8.044299 14.799561-8.0443h121.573621l-0.025889-375.762284c0-48.068919 39.735624-87.178989 88.590248-87.178989h311.375377c48.855226 0 88.59085 39.11007 88.590851 87.178989l0.025287 216.127404c0 48.050856-39.742247 87.145875-88.592055 87.145875H447.153711c-48.841378 0-88.578809-39.09562-88.578809-87.145875v-93.97218h-35.727021v93.97218c0 67.751894 55.761607 122.866273 124.30583 122.866273h126.888121c68.544824 0 124.312452-55.114379 124.312453-122.866273v-186.841964h-0.018664v-29.28544c0-67.77116-55.767026-122.899387-124.31727-122.899387h-311.380193c-68.544824 0-124.312452 55.127624-124.312453 122.899387l0.025889 340.041284H52.498371c-24.827691 0-50.519356 16.372175-50.519357 43.7653 0 14.61653 6.988865 28.549707 18.715444 37.380916L485.205336 844.584157c17.749117 14.497922 43.991679 14.072256 61.198328-0.947663l459.760521-380.100824c9.722277-8.064168 15.674372-19.375316 16.793024-31.875559 1.112631-12.47917-2.733412-24.647069-10.834306-34.260371-9.074447-10.609131-22.15268-16.662375-36.003373-16.72499l-3.789448-0.081882h-83.325118l-0.68516-231.359253v-114.817157c0-43.808649-13.083652-76.907019-38.899946-98.376345-25.565832-21.265826-57.471495-25.462878-78.669889-25.462878z m0 0"  horiz-adv-x="1024" />

    
    <glyph glyph-name="jia" unicode="&#58947;" d="M880.15737 448.280872H575.934072V752.50417c0 35.915501-29.109546 65.025048-65.025048 65.025048s-65.025048-29.109546-65.025047-65.025048v-304.223298H141.660679a65.025048 65.025048 0 0 1 0-130.050095h304.223298v-304.223298c0-35.915501 29.109546-65.025048 65.025047-65.025048s65.025048 29.109546 65.025048 65.025048V318.230777h304.216073a65.025048 65.025048 0 0 1 65.025047 65.025047 65.010598 65.010598 0 0 1-65.017822 65.025048z"  horiz-adv-x="1024" />

    
    <glyph glyph-name="jia1" unicode="&#58963;" d="M0.4335 894.742849h1021.478473v-1021.492923H0.4335zM0.4335 894.742849l1021.471248-1021.485698M0.4335-126.742849L1021.904748 894.742849M881.848021 456.546278H577.624723V760.762351a65.025048 65.025048 0 0 1-65.025048 65.025048 65.025048 65.025048 0 0 1-65.025047-65.025048v-304.216073H143.358555a65.025048 65.025048 0 0 1-65.025048-65.025047 65.025048 65.025048 0 0 1 65.025048-65.025048h304.216073v-304.223298a65.025048 65.025048 0 0 1 65.025047-65.025048 65.025048 65.025048 0 0 1 65.025048 65.025048V326.496183h304.223298a65.025048 65.025048 0 0 1 0 130.050095z"  horiz-adv-x="1024" />

    
    <glyph glyph-name="add-cart" unicode="&#58934;" d="M750.08 152.57600000000002H366.592c-32.768 0-60.416 23.552-65.536 55.808L248.32 527.36c-2.048 13.824 1.536 27.648 10.752 38.4 9.216 10.752 22.016 16.896 36.352 16.896l458.24 2.56c11.264 0 20.48-9.216 20.48-20.48s-9.216-20.48-20.48-20.48l-458.24-2.56c-2.56 0-4.096-1.536-5.12-2.56-0.512-1.024-2.048-2.56-1.536-5.12L341.504 215.03999999999996c2.048-12.288 12.8-21.504 25.6-21.504h383.488c11.776 0 22.016 8.192 25.088 19.456l55.296 228.352c2.56 10.752 13.824 17.92 24.576 14.848 10.752-2.56 17.92-13.824 14.848-24.576l-55.296-228.352c-7.168-29.696-33.792-50.688-65.024-50.688zM299.008 322.048c-9.728 0-18.432 7.168-19.968 17.408L212.992 747.52H65.024c-11.264 0-20.48 9.216-20.48 20.48s9.216 20.48 20.48 20.48H230.4c10.24 0 18.432-7.168 19.968-17.408l68.608-425.472c2.048-11.264-5.632-21.504-16.896-23.552h-3.072zM425.984 27.135999999999967m-54.784 0a54.784 54.784 0 1 1 109.568 0 54.784 54.784 0 1 1-109.568 0ZM698.88 27.135999999999967m-54.784 0a54.784 54.784 0 1 1 109.568 0 54.784 54.784 0 1 1-109.568 0ZM873.984 417.792c-75.776 0-137.216 61.44-137.216 137.728s61.44 137.728 137.216 137.728 137.216-61.44 137.216-137.728-61.44-137.728-137.216-137.728z m0 233.984c-53.248 0-96.256-43.52-96.256-96.768s43.52-96.768 96.256-96.768 96.256 43.52 96.256 96.768-43.008 96.768-96.256 96.768zM915.456 539.136h-83.968c-9.216 0-16.384 7.68-16.384 16.384 0 9.216 7.68 16.384 16.384 16.384h83.968c9.216 0 16.384-7.68 16.384-16.384 0.512-8.704-7.168-16.384-16.384-16.384zM873.984 491.52c-9.216 0-16.384 7.68-16.384 16.384V591.8720000000001c0 9.216 7.68 16.384 16.384 16.384s16.384-7.68 16.384-16.384v-83.968c0-8.704-7.168-16.384-16.384-16.384z"  horiz-adv-x="1024" />

    
    <glyph glyph-name="round-close" unicode="&#58904;" d="M516.707105 829.4865589999999c-243.848506 0-441.546917-197.698411-441.546917-441.546917s197.698411-441.546917 441.546917-441.546917 441.546917 197.698411 441.546917 441.546917S760.555611 829.4865589999999 516.707105 829.4865589999999z m227.066653-601.690816c18.419107-18.419107 18.419107-48.503647 0-66.922754s-48.503647-18.419107-66.922754 0L516.707105 321.016888 356.563206 160.87298899999996c-18.419107-18.419107-48.503647-18.419107-66.922754 0s-18.419107 48.503647 0 66.922754l160.143899 160.143899L289.640452 548.0835420000001c-18.419107 18.419107-18.419107 48.503647 0 66.922754 18.419107 18.419107 48.503647 18.419107 66.922754 0l160.143899-160.1439 160.143899 160.1439c18.419107 18.419107 48.503647 18.419107 66.922754 0 18.419107-18.419107 18.419107-48.503647 0-66.922754L583.629859 387.939642l160.143899-160.143899z"  horiz-adv-x="1024" />

    
    <glyph glyph-name="addNew" unicode="&#58993;" d="M225.902 688.449c-163.041-163.041-163.019-427.416 0.048-590.484 163.081-163.081 427.456-163.104 590.498-0.062 163.048 163.048 163.022 427.419-0.059 590.501-163.067 163.067-427.439 163.093-590.486 0.045zM786.777 127.574c-146.667-146.667-384.475-146.65-531.171 0.046-146.687 146.687-146.701 384.493-0.035 531.16 146.663 146.663 384.469 146.649 531.156-0.038 146.695-146.696 146.712-384.505 0.049-531.167zM497.64 621.939l0.002-143.384-0.094 0.094-0.001-61.844-205.134-0.001v-47.164l205.135-0.092-0.001-205.134 47.163-0.001-0.001 143.384 0.095-0.095-0.001 61.844 205.135 0.001v47.163l-205.133 0.095-0.001 205.134z"  horiz-adv-x="1024" />

    
    <glyph glyph-name="search" unicode="&#59140;" d="M941-63.9c-4.7 0-9.4 1.8-12.9 5.4l-171.6 171.6c-7.1 7.1-7.1 18.7 0 25.9 7.1 7.1 18.7 7.1 25.9 0l171.6-171.7c7.1-7.1 7.1-18.7 0-25.9-3.6-3.5-8.3-5.3-13-5.3zM227.9 418.4c-5.1 0-9.1 4.1-9.1 9.1 0 7.4 0.3 14.8 1 22.1 0.4 5 5.1 8.6 9.9 8.3 5-0.4 8.8-4.9 8.3-9.9-0.6-6.8-0.9-13.6-0.9-20.5-0.1-5-4.1-9.1-9.2-9.1zM237.8 486.8c-0.9 0-1.7 0.1-2.6 0.4-4.8 1.4-7.6 6.5-6.2 11.4 31.1 104.9 129.3 178.2 238.9 178.2 5.1 0 9.1-4.1 9.1-9.1s-4.1-9.1-9.1-9.1c-101.5 0-192.5-67.9-221.4-165.1-1.1-4.2-4.8-6.7-8.7-6.7zM483.9-9c-231.9 0-420.6 188.6-420.6 420.6s188.7 420.5 420.6 420.5 420.6-188.7 420.6-420.6c0-111.6-43.3-216.8-121.9-296.1-7.1-7.2-18.7-7.2-25.9-0.1-7.2 7.1-7.2 18.7-0.1 25.9 71.8 72.4 111.3 168.4 111.3 270.3 0 211.7-172.3 384-384 384s-384-172.3-384-384 172.3-384 384-384c79.7 0 156.2 24.2 221.1 70 8.2 5.8 19.6 3.8 25.5-4.4 5.8-8.3 3.8-19.7-4.4-25.5-71.1-50.1-154.9-76.6-242.2-76.6z"  horiz-adv-x="1024" />

    
    <glyph glyph-name="icon-test" unicode="&#58914;" d="M721.1-62c-7.1 0-14.3 2.7-19.7 8.2L283.2 364.3c-10.9 10.9-10.9 28.5 0 39.4L701.4 821.9c10.9 10.9 28.5 10.9 39.4 0 10.9-10.9 10.9-28.5 0-39.4L342.4 384l398.4-398.4c10.9-10.9 10.9-28.5 0-39.4-5.5-5.5-12.6-8.2-19.7-8.2z"  horiz-adv-x="1024" />

    
    <glyph glyph-name="dialog" unicode="&#58926;" d="M1233.329493 721.578667h-1112.064c-34.128213 0-61.781333-27.661653-61.781333-61.781334v-473.658026c0-34.117973 27.65312-61.781333 61.781333-61.781334h472.80128l83.23072-144.155306 83.23072 144.155306h472.80128c34.128213 0 61.781333 27.66336 61.781334 61.781334V659.797333c0 34.117973-27.65312 61.781333-61.781334 61.781334z"  horiz-adv-x="1365" />

    
    <glyph glyph-name="diamond" unicode="&#59679;" d="M512.85333333 742.39999999l197.97333334-213.33333333H314.88l197.97333333 213.33333333z m291.84-213.33333333h184.32l-238.93333333 307.2h-59.73333333l114.34666666-307.2z m-291.84-441.17333333L746.66666667 494.93333333H278.18666667l234.66666666-407.04zM656.21333333 836.26666666H368.64L260.26666667 532.47999999 512.85333333 793.59999999l252.58666667-261.97333333L656.21333333 836.26666666z m129.70666667-341.33333333l-273.06666667-480.42666667-273.06666666 480.42666667H58.88L512-54.613333340000054 961.70666667 494.93333333H785.92z m-565.76 34.13333333l114.34666667 307.2h-59.73333334L38.4 529.06666666h181.76z"  horiz-adv-x="1024" />

    
    <glyph glyph-name="user" unicode="&#58910;" d="M511.3 831.9c-143.7 0-260.5-116.9-260.5-260.5 0-104 61.4-193.8 149.8-235.5-163.4-48-283.1-199-283.1-377.7 0-11.4 9.2-20.6 20.6-20.6 11.4 0 20.6 9.2 20.6 20.6 0 194.5 158.2 352.7 352.6 352.7 143.6 0 260.5 116.9 260.5 260.5C771.9 715 655 831.9 511.3 831.9z m0-479.9c-121 0-219.4 98.4-219.4 219.4s98.4 219.4 219.4 219.4 219.4-98.4 219.4-219.4S632.3 352 511.3 352zM750.2 271.4c-9 6.9-21.9 5.2-28.8-3.9-6.9-9-5.2-21.9 3.9-28.9C813.4 171.20000000000005 864 69 864-41.799999999999955c0-11.4 9.2-20.6 20.6-20.6 11.4 0 20.6 9.2 20.6 20.6-0.1 123.8-56.5 237.9-155 313.2z"  horiz-adv-x="1024" />

    
    <glyph glyph-name="filter" unicode="&#58919;" d="M813.176471 233.41176499999995h-60.235295v-60.235294h60.235295v60.235294z m0 120.470588h-60.235295v-60.235294h60.235295v60.235294z m-180.705883 0h-60.235294v-60.235294h60.235294v60.235294z m0 421.647059h-210.823529v-60.235294h210.823529V775.529412zM316.235294 655.058824h30.117647c9.035294 0 15.058824 6.023529 15.058824 15.058823v180.705882c0 9.035294-6.023529 15.058824-15.058824 15.058824h-30.117647c-9.035294 0-15.058824-6.023529-15.058823-15.058824v-180.705882c0-9.035294 6.023529-15.058824 15.058823-15.058823zM632.470588 233.41176499999995h-60.235294v-60.235294h60.235294v60.235294z m75.294118 421.647059h30.117647c9.035294 0 15.058824 6.023529 15.058823 15.058823v180.705882c0 9.035294-6.023529 15.058824-15.058823 15.058824h-30.117647c-9.035294 0-15.058824-6.023529-15.058824-15.058824v-180.705882c0-9.035294 6.023529-15.058824 15.058824-15.058823zM271.058824 233.41176499999995H210.823529v-60.235294h60.235295v60.235294z m0 120.470588H210.823529v-60.235294h60.235295v60.235294z m0-240.941177H210.823529v-60.235294h60.235295v60.235294z m180.705882 0h-60.235294v-60.235294h60.235294v60.235294z m0 240.941177h-60.235294v-60.235294h60.235294v60.235294zM963.764706 775.529412h-150.588235v-60.235294h120.470588c18.070588 0 30.117647-12.047059 30.117647-30.117647v-150.588236H60.235294V685.176471c0 18.070588 12.047059 30.117647 30.117647 30.117647h150.588235V775.529412H60.235294C27.105882 775.529412 0 748.423529 0 715.294118v-752.941177c0-33.129412 27.105882-60.235294 60.235294-60.235294h903.529412c33.129412 0 60.235294 27.105882 60.235294 60.235294V715.294118c0 33.129412-27.105882 60.235294-60.235294 60.235294z m0-783.058824c0-18.070588-12.047059-30.117647-30.117647-30.117647H90.352941c-18.070588 0-30.117647 12.047059-30.117647 30.117647V474.352941h903.529412v-481.882353z m-512 240.941177h-60.235294v-60.235294h60.235294v60.235294z m180.705882-120.470589h-60.235294v-60.235294h60.235294v60.235294z m180.705883 0h-60.235295v-60.235294h60.235295v60.235294z"  horiz-adv-x="1024" />

    
    <glyph glyph-name="addcart-success" unicode="&#58932;" d="M48.566857 840.850286c31.597714-0.438857 63.488 2.852571 94.866286-1.536 33.28-11.776 43.373714-50.688 48.128-81.846857 4.242286-35.254857 9.508571-70.290286 17.846857-104.813715 12.946286-108.763429 33.060571-216.502857 48.054857-325.046857 182.491429-0.438857 364.909714 0.073143 547.401143-0.219428 40.155429-3.364571 69.485714 33.645714 82.797714 67.291428 17.334857 64.146286 34.304 128.438857 50.907429 192.804572 2.633143 8.557714 4.827429 17.92 11.776 24.283428 12.068571 3.218286 23.990857-0.950857 35.547428-4.096-13.165714-71.460571-36.644571-140.8-52.662857-211.748571-10.532571-54.710857-55.222857-107.446857-113.883428-109.421715-184.758857-0.512-369.590857 0.292571-554.422857-0.365714 6.802286-33.645714 9.728-68.096 18.797714-101.156571 12.580571-21.430857 33.206857-43.154286 60.269714-41.618286 173.202286-2.121143 346.477714 1.389714 519.68-1.243429 15.872 1.682286 29.110857-13.458286 22.528-28.964571-6.875429-14.555429-24.576-11.922286-37.741714-12.653714-165.741714 0.438857-331.556571-0.146286-497.371429 0.292571-55.881143-2.267429-111.323429 43.812571-115.2 100.352-25.526857 165.741714-49.152 331.776-75.117714 497.444572-5.997714 33.572571-4.388571 70.582857-26.477714 98.816-27.721143 8.265143-56.758857 3.584-84.918857 7.314285-13.165714 9.435429-7.241143 24.795429-0.804572 36.132572zM768.731429 734.208c15.213714 17.993143 48.201143 2.413714 39.424-21.650286-57.563429-67.364571-120.905143-129.828571-180.589715-195.364571-21.211429-21.504-39.570286-46.153143-63.926857-64.219429l-14.628571 2.048c-47.104 44.470857-93.988571 89.380571-139.117715 135.826286-16.237714 19.382857 13.531429 44.251429 31.890286 29.549714 39.643429-35.766857 76.653714-74.459429 115.126857-111.396571 71.533714 74.166857 140.361143 150.966857 211.821715 225.206857zM329.728 54.71085700000003c39.497143 16.822857 88.283429-9.874286 97.28-51.346286 11.264-41.837714-24.502857-89.746286-68.608-87.844571-30.500571-2.267429-59.026286 18.870857-69.778286 46.665143-15.945143 35.181714 6.729143 78.555429 41.106286 92.525714m10.605714-40.521143c-17.261714-11.044571-20.260571-39.789714-1.682285-51.273143 15.286857-13.019429 40.96-5.558857 46.153142 14.043429 10.093714 26.038857-20.333714 51.053714-44.470857 37.229714zM775.826286 54.71085700000003c47.104 20.48 105.618286-22.089143 99.181714-73.289143-1.609143-54.198857-73.289143-87.186286-114.980571-52.077714-44.178286 29.696-34.889143 107.52 15.798857 125.366857m9.801143-40.886857c-12.8-10.313143-19.748571-31.085714-7.021715-44.397714 13.970286-21.942857 50.980571-13.677714 54.125715 12.214857 5.705143 25.673143-25.014857 45.056-47.104 32.182857z"  horiz-adv-x="1024" />

    
    <glyph glyph-name="delete" unicode="&#58979;" d="M514.133333 55.46666700000003c12.8 0 21.333333 8.533333 21.333334 21.333333v384c0 12.8-8.533333 21.333333-21.333334 21.333333s-21.333333-8.533333-21.333333-21.333333v-384c0-10.666667 8.533333-21.333333 21.333333-21.333333zM684.8 55.46666700000003c12.8 0 21.333333 8.533333 21.333333 21.333333v384c0 12.8-8.533333 21.333333-21.333333 21.333333s-21.333333-8.533333-21.333333-21.333333v-384c0-10.666667 8.533333-21.333333 21.333333-21.333333zM343.466667 55.46666700000003c12.8 0 21.333333 8.533333 21.333333 21.333333v384c0 12.8-8.533333 21.333333-21.333333 21.333333s-21.333333-8.533333-21.333334-21.333333v-384c0-10.666667 8.533333-21.333333 21.333334-21.333333zM938.666667 746.666667h-211.2V823.466667c0 23.466667-21.333333 51.2-44.8 51.2H341.333333c-23.466667 0-40.533333-25.6-40.533333-51.2V746.666667H85.333333c-12.8 0-21.333333-8.533333-21.333333-21.333334s8.533333-21.333333 21.333333-21.333333h66.133334v-755.2C151.466667-85.33333300000004 177.066667-106.66666699999996 213.333333-106.66666699999996h597.333334c36.266667 0 66.133333 21.333333 66.133333 55.466667V704H938.666667c12.8 0 21.333333 8.533333 21.333333 21.333333s-8.533333 21.333333-21.333333 21.333334zM343.466667 802.133333c0 12.8 6.4 29.866667 19.2 29.866667h298.666666c12.8 0 23.466667-17.066667 23.466667-29.866667V746.666667h-341.333333V802.133333z m490.666666-853.333333c0-12.8-10.666667-12.8-23.466666-12.8H213.333333c-12.8 0-19.2 2.133333-19.2 12.8V704h640v-755.2z"  horiz-adv-x="1024" />

    
    <glyph glyph-name="order" unicode="&#58900;" d="M125.312 354.36800000000005V679.296c0 46.848 30.656 83.52 76.992 90.24a227.84 227.84 0 0 0 46.72 0.512c14.72-1.024 25.472-15.36 24.768-30.4a29.44 29.44 0 0 0-28.032-28.288c-9.856-0.32-19.712 0-29.568-0.064-19.008-0.256-31.488-12.736-31.488-31.936V29.440000000000055c0-19.52 12.544-32.064 32-32.064h590.144c20.032 0 32.256 12.416 32.32 33.088V209.27999999999997l0.064 467.392a35.712 35.712 0 0 1-6.208 22.72 29.248 29.248 0 0 1-23.424 11.776c-9.792 0.192-19.712 0-29.568 0.064a29.888 29.888 0 0 0-30.336 29.312 29.44 29.44 0 0 0 29.632 29.888c17.024-0.192 34.432 0.64 50.816-2.752 39.168-8.064 66.944-43.264 68.352-83.136l0.064-6.784v-646.848c0-38.976-17.472-67.648-52.608-84.928a83.2 83.2 0 0 0-37.056-8H215.104a88.96 88.96 0 0 0-89.792 90.176V354.36800000000005z m0 0M512.128 651.84H396.16c-37.632 0-62.528 25.024-62.656 62.592 0 18.112-0.064 36.16 0.064 54.336 0.192 35.904 25.408 61.248 61.312 61.248h234.304c35.52 0 61.056-25.6 61.12-60.992 0.064-19.072 0.128-38.208 0-57.344a58.688 58.688 0 0 0-58.624-59.712c-39.808-0.448-79.68-0.064-119.552-0.128z m118.528 118.336H393.408v-58.624h237.184v58.624h0.064z m0 0M511.424 294.72H336.96a32.448 32.448 0 0 0-22.848 7.36 28.544 28.544 0 0 0-9.024 30.72 28.032 28.032 0 0 0 24 21.056 48.384 48.384 0 0 0 6.784 0.512h351.936c20.032 0 33.344-13.504 32.128-32.256a29.44 29.44 0 0 0-23.68-26.496 64 64 0 0 0-11.072-0.768c-57.92-0.128-115.84-0.128-173.76-0.128z m0 0M511.488 146.24H334.016a28.16 28.16 0 0 0-27.2 16.832 28.224 28.224 0 0 0 3.52 31.232 29.056 29.056 0 0 0 24.192 11.264h353.856c18.496 0 31.552-12.352 31.552-29.632a29.056 29.056 0 0 0-29.056-29.632c-22.4-0.192-44.8-0.064-67.2-0.064H511.488z m0 0M452.672 502.912c39.488 0 78.912 0.128 118.4-0.064a29.44 29.44 0 0 0 29.248-36.672 29.76 29.76 0 0 0-29.504-22.592H491.968c-52.608 0-105.216-0.064-157.824 0.064a29.696 29.696 0 1 0 0.128 59.264h118.4z m0 0"  horiz-adv-x="1024" />

    
    <glyph glyph-name="tishi" unicode="&#58920;" d="M512 803.4304000000001c-226.35926383881477 0-410.5535657908148-184.19430316562963-410.5535657908148-410.5535657908148 0-77.6722962962963 22.19208430933333-155.3445925925926 64.35704498251852-221.92084673422224 6.657625050074073-11.096042154666666 19.97287636385185-13.315251313777777 31.06891851851852-6.657625050074073 11.096042154666666 6.657625050074073 13.315251313777777 19.97287636385185 6.657625050074073 31.06891851851852-37.72654356859259 57.69941993244444-57.69941993244444 126.49488201955555-57.69941993244444 197.50955326577775 0 201.94797037037037 164.2214268017778 366.16939717214814 366.16939717214814 366.1693959585185s366.16939717214814-164.2214268017778 366.16939717214814-366.1693959585185S713.9479703703704 26.70743703703704 512 26.70743703703704c-95.42596350103702 0-184.19430316562963 35.50733562311111-252.9897652527407 102.08358976474075-8.876834209185184 8.876834209185184-22.19208430933333 8.876834209185184-31.06891851851852 0-8.876834209185184-8.876834209185184-8.876834209185184-22.19208430933333 0-31.06891851851852 77.6722962962963-73.2338791917037 177.53667690192594-115.39883986488888 284.0586837712592-115.3988410785185 226.35926383881477 0 410.5535657908148 184.19430316562963 410.5535657908148 410.5535670044444S738.3592638388147 803.4304000000001 512 803.4304000000001zM489.8079156906667 199.80569683437022c0-13.315251313777777 8.876834209185184-22.19208430933333 22.19208430933333-22.19208430933333s22.19208430933333 8.876834209185184 22.19208430933333 22.19208430933333V494.9604227602963c0 13.315251313777777-8.876834209185184 22.19208430933333-22.19208430933333 22.19208552296296s-22.19208430933333-8.876834209185184-22.19208430933333-22.19208552296296v-295.1547259259259zM512 548.2214268017777c13.315251313777777 0 22.19208430933333 8.876834209185184 22.19208430933333 22.19208430933333v15.53445925925926c0 13.315251313777777-8.876834209185184 22.19208430933333-22.19208430933333 22.19208430933333s-22.19208430933333-8.876834209185184-22.19208430933333-22.19208430933333v-15.53445925925926c0-13.315251313777777 11.096042154666666-22.19208430933333 22.19208430933333-22.19208430933333z"  horiz-adv-x="1024" />

    
    <glyph glyph-name="arrow-right" unicode="&#58925;" d="M312.888889-99.55555600000002c-17.066667 0-28.444444 5.688889-39.822222 17.066667-22.755556 22.755556-17.066667 56.888889 5.688889 79.644445l364.088888 329.955555c11.377778 11.377778 17.066667 22.755556 17.066667 34.133333 0 11.377778-5.688889 22.755556-17.066667 34.133334L273.066667 708.266667c-22.755556 22.755556-28.444444 56.888889-5.688889 79.644444 22.755556 22.755556 56.888889 28.444444 79.644444 5.688889l364.088889-312.888889c34.133333-28.444444 56.888889-73.955556 56.888889-119.466667s-17.066667-85.333333-51.2-119.466666l-364.088889-329.955556c-11.377778-5.688889-28.444444-11.377778-39.822222-11.377778z"  horiz-adv-x="1024" />

    
    <glyph glyph-name="building" unicode="&#58951;" d="M81.92 15.360000000000014h860.16a20.48 20.48 0 1 0 0-40.96H81.92a20.48 20.48 0 1 0 0 40.96zM491.52 793.6H245.76a81.92 81.92 0 0 1-81.92-81.92v-737.28h409.6V711.6800000000001a81.92 81.92 0 0 1-81.92 81.92z m40.96-778.24H204.8V711.6800000000001a40.96 40.96 0 0 0 40.96 40.96h245.76a40.96 40.96 0 0 0 40.96-40.96zM266.24 568.3199999999999h204.8a20.48 20.48 0 0 0 0-40.96H266.24a20.48 20.48 0 0 0 0 40.96zM266.24 384h204.8a20.48 20.48 0 0 0 0-40.96H266.24a20.48 20.48 0 0 0 0 40.96zM266.24 199.67999999999995h204.8a20.48 20.48 0 1 0 0-40.96H266.24a20.48 20.48 0 1 0 0 40.96zM532.48 609.28h40.96v-81.92h-40.96zM798.72 506.88v-409.6h40.96V506.88a81.92 81.92 0 0 1-81.92 81.92h-143.36v-40.96h143.36a40.96 40.96 0 0 0 40.96-40.96zM798.72 56.32000000000005v-40.96h-184.32v-40.96h225.28v81.92h-40.96z"  horiz-adv-x="1024" />

    
    <glyph glyph-name="received" unicode="&#58913;" d="M885.6 735.9v0.5h-85.5v59.3H225.7v-60H138L63.3 556.5h897l-74.7 179.4zM63.3 511.6V93c0-66.1 53.5-119.6 119.6-119.6h657.8c66.1 0 119.6 53.5 119.6 119.6V511.6h-897z m336.4-343.8H175.5c-12.4 0-22.4 10-22.4 22.4s10 22.4 22.4 22.4h224.3c12.4 0 22.4-10 22.4-22.4s-10.1-22.4-22.5-22.4z m89.7 134.5h-314c-12.4 0-22.4 10-22.4 22.4 0 12.4 10 22.4 22.4 22.4h314c12.4 0 22.4-10 22.4-22.4 0-12.3-10-22.4-22.4-22.4zM891 283.5L717.5 110c-5.1-5.1-12.1-7.2-18.8-6.4-6.7-0.9-13.7 1.2-18.8 6.4l-98.8 98.8c-8.8 8.8-8.8 23 0 31.7 8.8 8.8 23 8.8 31.7 0l85.9-85.9 160.6 160.6c8.8 8.8 23 8.8 31.7 0 8.8-8.7 8.8-22.9 0-31.7zM222.4 706.7m-89.4 0a89.4 89.4 0 1 1 178.8 0 89.4 89.4 0 1 1-178.8 0ZM800.9 706.3m-89.4 0a89.4 89.4 0 1 1 178.8 0 89.4 89.4 0 1 1-178.8 0Z"  horiz-adv-x="1024" />

    
    <glyph glyph-name="select" unicode="&#58927;" d="M481.882353 359.358289m-208.085562 0a208.085561 208.085561 0 1 1 416.171123 0 208.085561 208.085561 0 1 1-416.171123 0ZM1401.839572 359.358289m-208.085561 0a208.085561 208.085561 0 1 1 416.171123 0 208.085561 208.085561 0 1 1-416.171123 0ZM2327.272727 359.358289m-208.085561 0a208.085561 208.085561 0 1 1 416.171123 0 208.085561 208.085561 0 1 1-416.171123 0Z"  horiz-adv-x="2891" />

    
    <glyph glyph-name="perfile" unicode="&#58958;" d="M903.529412 805.647059H120.470588C82.823529 805.647059 30.117647 735.171765 30.117647 715.294118v-716.8A36.141176 36.141176 0 0 1 66.56-37.64705900000001h96.376471A69.872941 69.872941 0 0 0 301.176471-37.64705900000001h139.745882a69.872941 69.872941 0 0 0 139.745882 0H722.823529a69.872941 69.872941 0 0 0 139.745883 0h96.075294A36.141176 36.141176 0 0 1 993.882353-1.5058820000000424V715.294118c0 46.381176-70.174118 90.352941-90.352941 90.352941zM150.588235 233.41176499999995a160.527059 160.527059 0 0 0 165.647059 154.503529 90.352941 90.352941 0 0 0-94.569412 88.244706A90.352941 90.352941 0 0 0 316.235294 564.705882a90.352941 90.352941 0 0 0 94.569412-88.244706 90.352941 90.352941 0 0 0-94.569412-88.244705A160.225882 160.225882 0 0 0 481.882353 233.41176499999995z m451.764706 247.265882c0 13.251765 7.830588 23.792941 17.167059 23.792941h206.607059c9.637647 0 17.167059-10.541176 17.167059-23.792941v-12.950588c0-13.251765-7.830588-23.792941-17.167059-23.792941h-206.607059c-9.637647 0-17.167059 10.541176-17.167059 23.792941v12.950588z m240.941177-253.891765c0-13.251765-7.830588-23.792941-17.167059-23.792941h-206.607059c-9.637647 0-17.167059 10.541176-17.167059 23.792941v12.950589c0 13.251765 7.830588 23.792941 17.167059 23.792941h206.607059c9.637647 0 17.167059-10.541176 17.167059-23.792941v-12.950589z m0 120.470589c0-13.251765-8.131765-23.792941-17.769412-23.792942h-235.52c-9.938824 0-17.769412 10.541176-17.769412 23.792942v12.950588c0 13.251765 8.131765 23.792941 17.769412 23.792941h235.52c9.938824 0 17.769412-10.541176 17.769412-23.792941v-12.950588z"  horiz-adv-x="1024" />

    
    <glyph glyph-name="right" unicode="&#59158;" d="M890.88 686.08c-40.96 40.96-107.52 40.96-148.48 0L373.76 309.76 281.6 404.48c-40.96 40.96-107.52 40.96-148.48 0-40.96-40.96-40.96-110.08 0-151.04l166.4-168.96c40.96-40.96 107.52-40.96 148.48 0L890.88 537.6c40.96 38.4 40.96 107.52 0 148.48z m-38.4-112.64S414.72 128 409.6 120.32000000000005c-20.48-20.48-53.76-20.48-74.24 0 0 0-166.4 171.52-168.96 171.52-17.92 20.48-17.92 53.76 2.56 74.24 20.48 20.48 53.76 20.48 74.24 0l130.56-133.12L780.8 647.6800000000001c20.48 20.48 53.76 20.48 74.24 0 17.92-20.48 17.92-53.76-2.56-74.24z"  horiz-adv-x="1024" />

    
    <glyph glyph-name="cellected" unicode="&#58965;" d="M890.27259259 708C794.27259259 804 644.27259259 804 548.27259259 708l-42-42-42 42C368.27259259 804 218.27259259 804 122.27259259 708c-96-96-96-246 0-342L464.27259259 23.999999989999992l42-41.99999999 42 42.00000001 342 341.99999999c90 96 90 252 0 342z"  horiz-adv-x="1024" />

    
    <glyph glyph-name="radio-checked" unicode="&#58896;" d="M874.497076 747.22361C674.578801 944.817253 349.130447 944.817253 149.212172 747.22361-48.381471 547.305335-48.381471 221.85698100000002 149.212172 21.938706000000025c199.918275-199.918275 523.041998-199.918275 722.960273 0 199.918275 199.918275 199.918275 525.366629 2.324631 725.284904z m-34.869467-690.415437c-181.321226-181.321226-476.549376-181.321226-657.870601 0C0.435782 238.12939800000004 0.435782 531.032917 184.081639 712.354143 365.402865 896 658.306383 896 839.627609 712.354143c183.645857-181.321226 183.645857-474.224745 0-655.54597zM511.854624 686.783201C344.481185 686.783201 209.652581 551.9545969999999 209.652581 384.581158s134.828604-302.202043 302.202043-302.202043 302.202043 134.828604 302.202043 302.202043S679.228063 686.783201 511.854624 686.783201z"  horiz-adv-x="1024" />

    
    <glyph glyph-name="radio-check" unicode="&#58897;" d="M874.497076 747.22361C674.578801 944.817253 349.130447 944.817253 149.212172 747.22361-48.381471 547.305335-48.381471 221.85698100000002 149.212172 21.938706000000025c199.918275-199.918275 523.041998-199.918275 722.960273 0 199.918275 199.918275 199.918275 525.366629 2.324631 725.284904z m-34.869467-690.415437c-181.321226-181.321226-476.549376-181.321226-657.870601 0C0.435782 238.12939800000004 0.435782 531.032917 184.081639 712.354143 365.402865 896 658.306383 896 839.627609 712.354143c183.645857-181.321226 183.645857-474.224745 0-655.54597z"  horiz-adv-x="1024" />

    
    <glyph glyph-name="shopcart" unicode="&#58886;" d="M768 236.79999999999995H313.6c-12.8 0-19.2 6.4-19.2 19.2s6.4 19.2 19.2 19.2H768c51.2 0 108.8 32 128 64l83.2 185.6c6.4 19.2 6.4 38.4 0 57.6-12.8 19.2-38.4 25.6-70.4 25.6h-576c-6.4 6.4-12.8 12.8-12.8 25.6s6.4 19.2 19.2 19.2h576c44.8 0 83.2-19.2 102.4-44.8 19.2-25.6 19.2-57.6 0-89.6l-83.2-185.6c-25.6-57.6-96-96-166.4-96zM838.4 70.39999999999998H409.6c-44.8 0-89.6 38.4-96 83.2l-128 537.6c-6.4 32-32 51.2-70.4 51.2H19.2C6.4 748.8 0 755.2 0 768s6.4 19.2 19.2 19.2h96c51.2 0 96-38.4 108.8-83.2l121.6-537.6c12.8-38.4 38.4-57.6 64-57.6H832c12.8 0 19.2-6.4 19.2-19.2s-6.4-19.2-12.8-19.2zM448 6.399999999999977m-32 0a32 32 0 1 1 64 0 32 32 0 1 1-64 0ZM736 6.399999999999977m-32 0a32 32 0 1 1 64 0 32 32 0 1 1-64 0Z"  horiz-adv-x="1032" />

    
    <glyph glyph-name="classfiy" unicode="&#58893;" d="M275.2 403.2C153.6 403.2 64 499.2 64 614.4 64 742.4 153.6 832 275.2 832s217.6-96 217.6-211.2v-192c0-12.8-6.4-19.2-19.2-19.2s-19.2 12.8-19.2 25.6v192c0 96-76.8 172.8-172.8 172.8-102.4 0-179.2-76.8-179.2-172.8C102.4 524.8 179.2 448 275.2 448c12.8 0 19.2-6.4 19.2-19.2s-6.4-25.6-19.2-25.6zM748.8 403.2h-192c-12.8 0-25.6 12.8-25.6 25.6v192C531.2 742.4 627.2 832 742.4 832c128 0 217.6-89.6 217.6-211.2s-96-217.6-211.2-217.6z m-179.2 38.4h179.2c96 0 179.2 76.8 179.2 179.2 0 102.4-76.8 179.2-172.8 179.2C652.8 800 576 723.2 576 627.2v-185.6zM256-64c-108.8 0-192 83.2-192 192v38.4c0 108.8 83.2 198.4 192 198.4h192c25.6 0 44.8-19.2 44.8-44.8v-153.6C492.8 38.39999999999998 384-64 256-64z m0 390.4c-89.6 0-160-70.4-160-160v-38.4c0-89.6 70.4-160 160-160 108.8 0 198.4 89.6 198.4 198.4V320L448 326.4H256zM748.8-64c-121.6 0-217.6 96-217.6 217.6V339.20000000000005c0 12.8 12.8 25.6 25.6 25.6h185.6c121.6 0 217.6-96 217.6-217.6S864-64 748.8-64zM569.6 326.4v-179.2c0-96 76.8-179.2 179.2-179.2s179.2 76.8 179.2 179.2-76.8 179.2-179.2 179.2H569.6z"  horiz-adv-x="1024" />

    
    <glyph glyph-name="default-flower" unicode="&#58903;" d="M419.47676065 84.5266944C448.06793292 43.12736047999999 482.59326862 18.94020740999997 519.76722963 18.94020740999997c36.09431609 0 69.67981701 22.80458619 97.77388658 62.01356136-32.49032155 7.34779923-68.91086128 27.87658715-105.54111621 58.92220398-31.81457257-26.96005405-63.4660333-45.98976663-92.52323935-55.34927835z m-120.01923223 67.1865363c-7.00604112 30.25335941-6.52447289 68.07200048 1.12624829 110.22475567-45.78005143 16.40438898-82.09961718 38.02058903-104.65565203 62.86795662-21.20453689-45.14313861-24.7463936-86.8220928-6.26815431-118.82307887 18.93650583-32.80101072 58.24645499-50.65787165 109.79755805-54.26963342z m335.87831087 538.05929813C604.18924848 746.13154702 563.83849055 780.12871111 519.76722963 780.12871111c-44.5916653 0-85.36185363-34.80495597-116.66378904-92.36012753 33.32141511-6.65651579 70.99247882-27.51929458 108.89655941-59.65232355 43.48095147 36.86327182 86.66674821 58.89890228 123.33583929 61.6562688z m80.81802429-48.234496c15.02958933-33.06509653 17.21994809-80.60054187 7.26235971-135.4760192 46.37036089-16.62187141 83.0472192-38.57982957 105.52558174-63.84662755 32.7932435 54.82887395 41.84206602 106.41104592 19.922944 144.36172989-21.65503621 37.51571911-69.94390282 55.48132125-132.71088545 54.95314963z m8.24103064-490.46171496c58.74355769 1.05634323 103.77018785 19.06078151 124.46985481 54.91431348 19.98508183 34.603008 14.22179745 80.5306368-11.7984218 129.92245002-21.12686459-29.53100705-61.17470057-55.17063205-113.65010394-73.975095 7.70509179-42.44790992 8.14005665-80.50733511 0.97867093-110.8616685zM307.74516243 641.31278317c-55.61336415-2.22142768-98.1467136-20.19479703-118.08519206-54.7356672-20.66083082-35.7836269-13.79459982-83.68413203 14.53248664-134.99445096 22.71914667 21.33657979 55.84638103 39.94686198 96.3913197 54.47934862-9.94205392 54.75896889-7.77499685 102.19344023 7.16138572 135.25076954zM519.76722963-74.26654814999995c-257.38268823 0-466.03377778 208.65108955-466.03377778 466.03377778s208.65108955 466.03377778 466.03377778 466.03377778 466.03377778-208.65108955 466.03377778-466.03377778-208.65108955-466.03377778-466.03377778-466.03377778z m0 341.7581037c68.63900823 0 124.27567408 55.63666583 124.27567407 124.27567408s-55.63666583 124.27567408-124.27567407 124.27567407-124.27567408-55.63666583-124.27567408-124.27567407 55.63666583-124.27567408 124.27567408-124.27567408z"  horiz-adv-x="1024" />

    
    <glyph glyph-name="minus" unicode="&#58898;" d="M186.88 441.344h649.728c31.744 0 57.344-25.6 57.344-57.344 0-31.744-25.6-57.344-57.344-57.344H186.88c-31.744 0-57.344 25.6-57.344 57.344 0 31.744 25.6 57.344 57.344 57.344z"  horiz-adv-x="1024" />

    
    <glyph glyph-name="arrow-left" unicode="&#58917;" d="M247.59107584 384c0 16.6280852 6.35048694 33.25617038 19.01417813 45.93228914l398.92491378 398.91248621c25.37709264 25.37709264 66.51234077 25.37709264 91.87700585 0 25.36466508-25.36466508 25.36466509-66.49991319 0-91.87700585L404.42697651 384l352.96776952-352.9677695c25.36466508-25.37709264 25.36466508-66.51234077 0-91.87700585-25.36466508-25.37709264-66.49991319-25.37709264-91.87700585 0l-398.92491378 398.91248621C253.92913522 350.74382962000004 247.59107584 367.3719148 247.59107584 384z"  horiz-adv-x="1024" />

    
    <glyph glyph-name="arrow-right1" unicode="&#58881;" d="M776.40892416 384c0-16.6280852-6.35048694-33.25617038-19.01417813-45.93228914l-398.92491378-398.91248621c-25.37709264-25.37709264-66.51234077-25.37709264-91.87700585 0-25.36466508 25.36466508-25.36466509 66.49991319 0 91.87700585L619.57302349 384l-352.96776952 352.9677695c-25.36466508 25.37709264-25.36466508 66.51234077 0 91.87700585 25.36466508 25.37709264 66.49991319 25.37709264 91.87700585 0l398.92491378-398.91248621C770.07086478 417.25617038 776.40892416 400.6280852 776.40892416 384z"  horiz-adv-x="1024" />

    
    <glyph glyph-name="warn" unicode="&#58880;" d="M512 832C264.8 832 64 631.2 64 384s200.8-448 448-448 448 200.8 448 448S759.2 832 512 832z m32-704h-64v64h64v-64z m-64 128V640h64v-384h-64z"  horiz-adv-x="1024" />

    
    <glyph glyph-name="others" unicode="&#58882;" d="M1006.858848 745.469388a95.183673 95.183673 0 0 1-15.428572 15.020408C802.042521 863.346939 603.022113 887.836735 528.246603 894.204082V896s-5.55102 0-15.428572-0.734694-15.510204 0.734694-15.510204 0.734694v-1.795918C422.450684 887.836735 223.267011 863.346939 33.634358 760.4897960000001a95.183673 95.183673 0 0 1-15.428572-15.020408s-36.734694-602.122449 494.612245-873.469388c530.77551 271.346939 494.040816 873.469388 494.040817 873.469388z m-337.551021-704.897959a75.510204 75.510204 0 0 0-32.653061 27.510204c64.571429 40.816327 114.285714 75.755102 138.204082 93.387755a995.918367 995.918367 0 0 0-105.551021-120.897959zM512.736399 849.714286l20-1.632653c32.653061-26.693878 107.836735-79.673469 242.530612-132.734694 0 0-169.877551-73.469388-262.530612-60.244898-92.734694-13.142857-262.77551 60.244898-262.77551 60.244898 134.77551 53.061224 209.959184 106.122449 242.693877 132.734694z m447.346938-144.244898c-26.285714-19.102041-63.020408-57.142857-104.244897-104l12.081632 23.591836-60.734694 4.163266a348.979592 348.979592 0 0 1 9.632653 68.734694c26.612245-5.061224 97.22449-14.367347 143.428572 18.530612 0-3.673469 0-7.428571-0.163266-11.020408z m-710.204081-65.306123a460.244898 460.244898 0 0 0-6.857143 45.795919c51.918367-26.612245 130.612245-45.795918 130.612245-45.795919l-121.877551-8.163265a85.877551 85.877551 0 0 0-1.714286 8.081633z m-21.306123-41.714285c9.306122-25.877551 24.489796-68.816327 43.591837-120.89796-33.22449 41.632653-66.44898 82.204082-97.387755 117.714286 8.734694 0.734694 28.244898 1.795918 53.877551 3.102041z m32.653062 1.55102C362.61395 604.4897960000001 512.654766 610.285714 512.736399 610.285714s149.959184-5.55102 251.428571-10.122449c-13.877551-43.591837-39.265306-115.183673-68.816326-195.918367-98.367347-127.918367-182.44898-245.714286-182.612245-245.877551S428.409868 276.32653100000005 329.960889 403.836735c-29.55102 80.816327-55.020408 152.408163-68.89796 196z m589.224489-4.734694c-30.938776-35.591837-64.163265-76.081633-97.306122-117.714286 18.77551 52 34.122449 94.938776 43.265306 120.816327 25.795918-1.306122 45.306122-2.367347 53.877551-3.265306z m-75.020408 44.979592a85.714286 85.714286 0 0 0-1.795918-8.163265l-121.795918 8.163265s78.530612 19.183673 130.612244 45.795918a460.489796 460.489796 0 0 0-7.183673-45.959183z m-124.081632-355.755102c-26.530612-71.265306-53.387755-142.612245-76.326531-203.265306-39.183673 1.22449-31.673469 62.122449-31.673469 62.122449 8.163265 11.020408 53.469388 70.285714 108 141.142857zM481.879256 143.34693900000002s8.163265-60.897959-31.428572-62.122449c-22.938776 60.653061-49.877551 132-76.408163 203.265306 54.530612-70.857143 100.081633-130.122449 107.836735-141.142857z m30.938775-60.244898a223.428571 223.428571 0 0 1 45.142858-47.183674c-26.857143-70.612245-45.061224-118.204082-45.142858-118.367347s-18.44898 47.836735-45.224489 118.367347a223.428571 223.428571 0 0 1 45.142857 47.183674z m198.367347 278.938775c79.346939 102.77551 156.734694 202.77551 156.734694 202.775511-14.040816-113.714286 8.734694-173.469388 22.122449-197.632654a941.469388 941.469388 0 0 0-74.857143-145.959183l6.367347 12.408163C784.16497 203.02040799999997 665.797623 129.46938799999998 614.287419 97.95918400000005c29.959184 80.326531 64.979592 176.244898 96.897959 264.081632z m187.755102 187.755102l39.510204-25.714285a945.387755 945.387755 0 0 0-29.714285-107.183674c-12.979592 51.265306-9.959184 132.897959-9.959184 132.897959z m15.428572 75.265306l44 42.857143a1004.081633 1004.081633 0 0 0-13.22449-109.877551 65.714286 65.714286 0 0 0-30.938776 67.020408z m-97.469388 114.285715a507.346939 507.346939 0 0 1-5.387755 53.795918 892.408163 892.408163 0 0 0 128.816326-51.673469c-19.755102-11.183673-56.816327-19.836735-123.510204-2.204082z m-32.653061 10.040816c-47.918367 16.326531-108.408163 44.979592-184.571429 91.265306a1277.469388 1277.469388 0 0 0 175.510204-36.489796A222.530612 222.530612 0 0 0 784.083337 749.061224zM241.307827 749.061224a222.367347 222.367347 0 0 0 9.061225 54.775511 1279.591837 1279.591837 0 0 0 175.591837 36.734694C349.715991 794.285714 289.226195 765.877551 241.307827 749.061224z m-32.653061-9.795918c-66.77551-17.632653-103.836735-9.061224-123.591837 2.122449a893.795918 893.795918 0 0 0 128.979592 51.673469 506.938776 506.938776 0 0 1-5.387755-53.795918zM64.818031 716.4081630000001c45.877551-32.653061 116.897959-23.510204 143.836735-18.448979a348.653061 348.653061 0 0 1 9.632653-68.734694l-60.816326-4.163266 12.081632-23.591836c-41.469388 47.102041-78.285714 84.897959-104.571428 104-0.081633 3.591837-0.081633 7.346939-0.163266 10.938775z m2.040817-48.571428l43.836734-42.775511a65.714286 65.714286 0 0 0-30.77551-66.938775 1003.102041 1003.102041 0 0 0-13.061224 109.795918z m59.510204-118.204082s3.020408-81.632653-9.795919-132.816326a944.816327 944.816327 0 0 0-29.714285 107.183673z m30.938775 15.020408s77.469388-99.836735 156.816327-202.612245c31.918367-87.836735 67.020408-183.755102 96.979592-264.081632-51.428571 31.591837-169.795918 105.061224-207.428572 135.673469l6.367347-12.408163a941.142857 941.142857 0 0 0-74.857143 145.959183c13.387755 24.163265 36.163265 83.918367 22.122449 197.632654zM437.226195 29.06122400000004c13.142857-34.612245 24.489796-63.510204 32.653061-83.510204a924.489796 924.489796 0 0 0-91.020408 73.469388c15.510204 7.836735 38.122449 15.346939 58.367347 10.040816z m151.346938 0c20.081633 5.306122 42.612245-2.204082 58.44898-9.714285a923.673469 923.673469 0 0 0-90.938776-73.469388c8.081633 19.510204 19.183673 48.571429 32.326531 83.183673zM250.777215 161.30612199999996c24.489796-17.55102 73.469388-52.734694 138.285714-93.387755a75.510204 75.510204 0 0 0-32.653061-27.510204A995.918367 995.918367 0 0 0 250.777215 161.30612199999996z"  horiz-adv-x="1024" />

    
    <glyph glyph-name="triangle" unicode="&#58883;" d="M990.6912 700.1766230000001S834.098992 848.8727269999999 774.254836 896H233.330161S40.083408 738.077922 17.226265 700.25974c0 0 33.246753-484.987013 494.794805-828.25974 0 0 342.109091 242.867532 494.794805 783.044156a49.87013 49.87013 0 0 1-16.124675 45.132467zM114.971719 620.2181820000001a953.766234 953.766234 0 0 1 77.464936-241.038961l-30.67013-14.961039a1048.519481 1048.519481 0 0 0-90.597403 268.550649z m32.083117 29.922078s82.535065 80.124675 127.833767 117.111688l28.758441-41.974026c-31.833766-25.6-84.945455-69.236364-107.636363-92.509091l-48.955845 17.371429z m364.218182-523.636364S255.106784 323.98960999999997 216.706784 612.072727c0 0 98.909091 92.841558 121.683117 104.727273h335.459741s105.890909-83.116883 131.823376-123.761039c-0.332468 0-47.709091-249.184416-294.483117-466.618182z m172.384416 618.888312H331.989901l-23.854545 38.732467h397.880519l-18.867532-41.558441z m152.103896-152.353247a31.168831 31.168831 0 0 1 0 7.231169l36.488312 12.883117a1013.194805 1013.194805 0 0 0-78.462338-210.119481l-30.919481 6.732468a1063.896104 1063.896104 0 0 1 72.893507 183.272727z m-19.615585 37.236364c-21.444156 19.116883-74.38961 67.241558-110.628571 97.496104l26.92987 39.397402c31.085714-26.264935 90.431169-77.797403 124.675325-117.111688zM722.722369 820.696104H285.610681l-18.535065 30.088312h469.361039zM189.610681 598.441558a716.051948 716.051948 0 0 1 60.758441-191.168831l-24.935065-12.301298a843.137662 843.137662 0 0 0-71.480519 213.85974z m17.787013-249.350649a1009.454545 1009.454545 0 0 1 117.361038-180.031169l-22.441558-30.587013A1372.01039 1372.01039 0 0 0 177.060031 334.12987z m33.246753 16.124675l24.935065 12.218182a787.2 787.2 0 0 1 102.483117-149.610389l-20.197403-27.594806a1116.176623 1116.176623 0 0 0-107.47013 164.737663z m151.771428-163.740259a832.748052 832.748052 0 0 1 103.231169-92.342857l-4.987013-62.919481a1184.581818 1184.581818 0 0 0-118.524675 123.844156z m134.898702-91.428572a782.046753 782.046753 0 0 1 99.740259 96.498702l19.532468-34.244156a1281.080519 1281.080519 0 0 0-114.701299-123.844156z m115.033766 115.449351a995.657143 995.657143 0 0 1 106.306493 156.592208l29.257143-10.722078a1252.987013 1252.987013 0 0 0-111.625974-173.464935z m165.07013 135.480519l35.98961-13.132467a1547.303896 1547.303896 0 0 0-128.415584-205.464935l-27.096104 30.836363a1283.98961 1283.98961 0 0 1 119.522078 187.345455z m18.11948 35.74026a1388.633766 1388.633766 0 0 1 87.438961 229.485714v1.828572l43.968831 15.542857a1232.955844 1232.955844 0 0 0-93.340259-255.168831z m108.966234 291.574026l-40.311688-19.615584c-21.361039 20.114286-92.758442 87.023377-141.298702 128.831169l25.516884 37.236363c35.823377-30.503896 111.542857-96.249351 156.093506-146.867532z m-706.493506 148.114286l27.428571-40.062338c-46.046753-38.4-130.41039-110.046753-145.288312-132.987013l-46.046753 16.623377c0 1.911688-0.581818 3.823377-0.831169 5.735065-0.332468-0.581818 111.044156 107.885714 164.405195 150.275324z m101.818181-732.342857l21.776624 33.994805a1037.963636 1037.963636 0 0 1 136.228571-127.750649l-5.153247-68.155845a1474.077922 1474.077922 0 0 0-152.851948 161.911689zM540.197694-55.85454500000003l-5.319481 66.992207a1007.709091 1007.709091 0 0 1 128.166234 131.241559l22.025974-38.649351A1580.966234 1580.966234 0 0 0 540.197694-55.85454500000003z"  horiz-adv-x="1024" />

    
    <glyph glyph-name="cushion" unicode="&#58884;" d="M1014.320288 661.664689S950.295173 800.893909 803.528604 869.576936c0 0-229.59271 59.282515-572.076265 0 0 0-133.555036-63.093533-180.64229-163.365672 0 0-103.490332-226.459205-15.074697-623.652052 0 0 73.425629-163.365672 240.856388-193.00693a1985.54079 1985.54079 0 0 1 526.852175 0s161.841265 55.725564 210.706995 222.732876c0.169379 0 56.572457 349.004632 0.169378 549.379531z m-113.56836-651.260766l-112.29802 10.078027v106.708526h105.607565v29.641257H788.453908v177.847544l105.353497-177.847544 12.872775-139.737355z m-413.199126-91.125694l-165.736973 89.09315 180.642291 103.913779h45.1394l165.567594-103.913779-165.567594-89.09315z m60.044718 920.572761l165.652284-89.093151-165.652284-103.998468h-45.1394L321.815829 750.757839 487.552802 839.85099z m358.066388-94.08982l-11.602435-128.643056v14.905318H788.453908V738.647269l114.076496 10.247406zM773.463901 439.016502v-103.998468l-14.905318-29.641257v-148.545044H592.82161l-15.074697-14.820628H472.393416l-30.064704 14.820628H291.751126V305.37677699999995l-15.074697 29.641257V439.016502l15.074697 14.820629V602.297485h150.492897l30.064704 14.820629h105.438186l15.074697-14.820629h165.736973v-148.460354zM261.601733 156.83173299999999H156.248235l105.353498 177.847544z m-96.54581 445.465752h96.54581v-163.280983z m623.482674 0h96.630499L788.453908 439.016502z m-29.980014 29.725947H577.746913L758.558583 735.9372109999999z m-285.995788 0H291.751126V735.9372109999999z m-210.706995 0H154.893206L144.052975 749.148743l117.548758-10.501474z m-120.428193-59.282515L246.527036 409.629313v-44.885332l-105.353497-177.847544L50.894738 349.923352v59.705961z m12.279949-445.465752h107.894177v-106.623836l-118.56503-10.670853z m138.212948 0h180.472912l-180.64229-104.083157z m285.995788 0h180.642291v-103.913779z m225.612312 237.468816v44.885332l105.353498 163.365672 90.36349-163.365672v-59.282514l-90.36349-163.789119z m120.428194 252.374133l11.094299 98.154906a220.192197 220.192197 0 0 0 49.119798-83.334277s8.468931-69.529921 13.550289-160.401547z m-54.793981 160.909682l-110.604234-12.703396-179.795398 88.923772c93.158237-0.846893 181.91263-8.045484 224.765419-29.217811a690.471915 690.471915 0 0 0 65.634213-47.256633z m-607.561084 61.823194s85.790267 8.468931 190.805007 12.19526L291.751126 765.3244l-127.880853 14.058425a427.088172 427.088172 0 0 0 97.73146 60.468165zM81.044131 691.390636a346.548642 346.548642 0 0 0 32.181937 40.058042l12.872774-114.330564-82.233316-162.180022a1006.955854 1006.955854 0 0 0 37.178605 236.452544zM65.884745 112.28515800000002a1532.876447 1532.876447 0 0 0-21.341705 192.160036l81.640491-147.613461-13.296221-118.565029a416.247941 416.247941 0 0 0-47.002565 74.018454z m195.716988-177.847543a245.598989 245.598989 0 0 0-90.024733 46.240361l120.089436 13.126842 140.838317-75.796929c-53.100195 2.45599-110.434856 7.537348-170.90302 16.090968z m526.852175 0a1384.67016 1384.67016 0 0 0-186.316474-17.700065l156.421149 76.813201 112.467399-12.364639a230.608981 230.608981 0 0 0-82.572074-47.087255z m147.020636 120.258815l-11.517746 102.389371 77.151958 139.567977a772.112407 772.112407 0 0 0-16.937861-154.473295 498.142501 498.142501 0 0 0-48.696351-87.738121z"  horiz-adv-x="1039" />

    
    <glyph glyph-name="emerald" unicode="&#58885;" d="M932.759081 766.227724L797.565727 896H211.422056L91.240919 780.656133v-778.800456l15.012217-14.428409 30.024434-28.856817 90.156703-86.570451h571.131454l-6.088288 7.756312 141.281642 122.015964z m-34.361296-753.696693l-38.281154 21.183906 27.522398 23.769344V725.027529l-6.755497 6.421893 21.767714 12.009773v-727.341912z m-615.584297-43.201824l-51.958951 50.040723 45.954064 29.440625 33.360482-32.276266h22.768529l-38.614758-46.954879zM177.644568 724.026714l48.205896-28.523212-14.428408-13.8446v-570.380844l39.865776-38.281153-47.455286-28.022805-26.187978 25.020362zM756.198729 813.099202l71.308031-68.305587-47.622088-28.106207-51.541945 49.456915h-20.933703l36.696531 46.954879z m41.700603-162.298746v-533.767715l-36.029321-28.856817-234.857794 129.939078v316.924581l250.704023 139.196612z m-556.369441 14.428409L253.623066 679.156866l243.364717-143.700277v-316.924581l-219.595374-130.10588-35.945919 28.690015z m85.402834 79.814953l125.101808-151.956996-175.726339 112.424825 34.194494 39.615572z m39.532172 0h291.070206L512 564.313406z m85.402834-584.64245l-94.910572-115.343867h-25.020361l-26.93859 21.100505z m60.132269 28.856817l116.094478-144.200684h-231.855351z m60.132269-28.856817l160.380518-95.244176-25.020362-20.099691h-45.203453z m0 432.685454L690.895586 745.043818h26.688385l37.280339-43.535429z m102.41668 173.140902h-325.264701l-37.780746 46.954879h400.325786zM291.403812 838.286366L268.134875 866.809578h487.73025l-23.185535-28.856817z m-20.433296-25.020362l38.614758-46.954878h-10.091545L252.288646 720.857469l-47.288483 30.274637 64.719335 61.967096z m101.66607-797.148721h278.726828l37.780746-46.954879H334.85584z m312.170712 0h37.613943l36.696531 33.360482 45.787261-27.438996-61.967095-52.792963h-21.43411z m101.916273 58.380844l40.86659 36.946734V671.15035l-20.266493 19.515882 48.706304 26.93859 5.421079-5.170875v-642.189282l-26.354781-22.434924z m91.741326 700.570125l-26.604985-15.762828-82.483792 78.980942h-5.671282l20.933702 26.771787z m-651.947223 91.741326l26.521583-32.192865-71.725036-68.639192-35.94592 23.268936z m-105.502525-850.692295V757.303795l31.358853-18.515067-1.334419-1.251018v-679.719824l28.35641-27.272195-45.203453-26.688385z m41.700603-40.366183l43.869034 28.106206 62.467503-59.798665h4.253461l-34.194494-41.700602z m116.761687-75.061085l34.861704 43.285225h395.07151l34.861704-43.285225z m461.45887 43.285225h15.012217l73.976869 63.801922 37.030135-22.017918-94.660368-80.732367z"  horiz-adv-x="1024" />

    
    </font>
</defs>
</svg>
